<svg width="500" height="500" viewBox="0 0 500 500" fill="none" xmlns="http://www.w3.org/2000/svg">
<g clip-path="url(#clip0_1424_1547)">
<path d="M500 0H0V500H500V0Z" fill="white"/>
<path d="M218.389 165.49C203.019 109.733 133.756 91.772 94.0633 133.442C93.4933 134.04 92.9243 134.649 92.3543 135.267C35.4473 197.127 62.3303 349.57 181.094 388.207C299.858 426.844 423.388 356.289 430.328 293.217C437.268 230.145 382.476 210.327 297.446 227.963C249.404 237.927 227.957 200.2 218.389 165.49Z" fill="#D5D7FF"/>
<path d="M317.184 175.027C301.294 177.614 296.89 191.692 309.159 201.679C313.214 204.98 319.006 207.723 327.256 209.091C358.685 214.305 375.362 200.4 362.764 182.371C354.99 171.244 332.932 172.463 317.184 175.027Z" fill="#D5D7FF"/>
<path d="M71.2654 288.974C63.4624 274.892 48.7244 275.503 43.4694 290.424C41.7324 295.356 41.1074 301.733 42.6064 309.961C48.3154 341.303 67.0374 352.303 79.7504 334.356C87.5974 323.279 78.9984 302.93 71.2654 288.974Z" fill="#D5D7FF"/>
<path d="M441.529 300.547C440.065 308.21 446.393 313.638 453.563 310.685C455.933 309.709 458.323 307.827 460.45 304.519C468.551 291.917 464.448 281.107 453.169 282.217C446.206 282.902 442.979 292.953 441.529 300.547Z" fill="#D5D7FF"/>
<path d="M401.357 219.682C408.994 221.276 414.529 215.042 411.698 207.823C410.762 205.437 408.922 203.015 405.651 200.832C393.189 192.518 382.311 196.436 383.228 207.732C383.794 214.705 393.789 218.103 401.357 219.682Z" fill="#D5D7FF"/>
<path d="M215.737 137.68C221.784 142.61 229.567 139.622 230.376 131.91C230.644 129.361 230.124 126.363 228.224 122.92C220.986 109.803 209.525 108.276 205.141 118.727C202.435 125.179 209.745 132.795 215.737 137.68Z" fill="#D5D7FF"/>
<path d="M457.557 412.874C460.18 413.312 462.916 412.578 464.743 410.646C465.934 409.387 466.743 407.832 466.742 406.342C466.742 406.321 466.742 406.299 466.742 406.278C466.707 395.589 479.84 396.3 484.056 383.231C488.272 370.162 471.611 369.061 462.094 377.13C455.252 382.932 447.04 374.827 437.094 381.594C428.459 387.467 433.268 401.928 419.104 397.407C414.581 395.962 410.531 397.355 407.113 399.92C403.178 402.873 400.616 407.012 399.549 411.507L400.677 412.304C428.615 429.427 441.204 410.143 457.557 412.874Z" fill="#6D6BCE"/>
<path d="M429.875 412.303L466.912 388.529C467.408 388.211 467.551 387.55 467.233 387.055C466.915 386.559 466.254 386.416 465.759 386.734L425.926 412.303H429.875Z" fill="#5359CD"/>
<path d="M427.881 341.573C426.318 318.27 426.06 293.834 427.795 277.632C430.061 256.465 435.186 241.73 443.029 233.838C443.549 233.315 444.394 233.312 444.918 233.832C445.441 234.352 445.444 235.198 444.924 235.721C431.213 249.518 426.283 286.565 430.638 342.931L427.881 341.573Z" fill="#260EAB"/>
<path d="M431.386 258.932C431.386 258.932 420.222 258.914 421.02 239.287C421.02 239.287 438.101 244.16 431.386 258.932Z" fill="#5359CD"/>
<path d="M430.451 269.029C430.451 269.029 429.847 257.881 449.489 257.586C449.489 257.586 445.573 274.912 430.451 269.029Z" fill="#5359CD"/>
<path d="M438.988 241.498C438.988 241.498 434.702 231.189 453.121 224.362C453.121 224.362 455.207 242.003 438.988 241.498Z" fill="#5359CD"/>
<path d="M427.944 289.286C427.944 289.286 417.432 293.046 411.544 274.305C411.544 274.305 429.267 273.113 427.944 289.286Z" fill="#5359CD"/>
<path d="M428.55 299.717C428.55 299.717 426.028 288.841 445.322 285.154C445.322 285.154 444.461 302.896 428.55 299.717Z" fill="#5359CD"/>
<path d="M427.958 314.081C427.958 314.081 417.519 318.039 411.277 299.414C411.277 299.414 428.974 297.887 427.958 314.081Z" fill="#5359CD"/>
<path d="M103.982 393.508L100.94 393.388L99.3272 393.323L94.7572 393.14C94.7572 393.14 52.5192 321.435 78.9792 298.051C87.1252 290.852 101.366 296.821 98.2182 329.907C95.3002 360.578 103.982 393.508 103.982 393.508Z" fill="#5359CD"/>
<path d="M100.94 393.388L99.327 393.323C91.953 375.949 88.231 357.286 86.383 344.186C84.189 328.631 84.087 317.336 84.087 317.224C84.083 316.821 84.4079 316.491 84.8109 316.49C85.2139 316.486 85.544 316.811 85.546 317.213C85.547 317.326 85.647 328.542 87.832 344.006C89.691 357.17 93.453 375.986 100.94 393.388Z" fill="#260EAB"/>
<path d="M112.373 407.874L108.242 409.408L106.05 410.221L99.8412 412.523C99.8412 412.523 3.44623 340.243 25.7752 294.254C32.6492 280.096 55.0042 280.136 69.2332 326.101C82.4242 368.709 112.373 407.874 112.373 407.874Z" fill="#6D6BCE"/>
<path d="M108.242 409.408L106.05 410.221C86.5161 391.115 71.1431 368.25 61.3751 351.775C49.7761 332.212 43.3461 317.177 43.2851 317.027C43.0551 316.49 43.3061 315.869 43.8431 315.643C44.3801 315.413 45.0011 315.664 45.2281 316.199C45.2921 316.35 51.6761 331.281 63.2111 350.727C73.0301 367.281 88.5411 390.328 108.242 409.408Z" fill="#5359CD"/>
<path d="M441.867 411.964C441.82 410.298 441.624 408.615 441.259 406.945C437.793 391.081 447.222 388.088 459.653 383.078C472.08 378.067 473.558 363.184 464.757 350.817C455.954 338.447 471.77 328.506 465.947 309.891C460.123 291.276 439.897 303.658 435.472 320.819C432.293 333.158 416.122 330.488 410.134 346.49C404.932 360.381 422.366 373.211 402.231 379.579C395.8 381.61 392.245 386.546 390.383 392.323C388.24 398.974 388.661 405.876 391.108 411.963L441.867 411.964Z" fill="#5359CD"/>
<path d="M417.241 411.964L450.406 330.091C450.72 329.316 450.345 328.432 449.569 328.118C448.794 327.804 447.91 328.179 447.596 328.955L413.971 411.964H417.241Z" fill="#260EAB"/>
<path d="M140.905 164.441C140.905 164.441 141.602 149.701 132.637 146.87C118.677 142.461 114.791 149.701 112.637 154.485C109.876 160.616 111.053 172.642 119.382 173.803C131.816 175.537 140.137 168.56 140.905 164.441Z" fill="#31088E"/>
<path d="M149.904 213.732C157.159 213.732 163.426 208.648 164.912 201.546C165.982 196.431 167.027 191.903 167.027 189.359V189.293C167.092 188.489 167.128 187.685 167.134 186.893C167.229 175.262 160.059 154.019 134.837 157.395C134.837 157.395 113.909 159.783 111.527 180.234C111.527 180.234 110.535 189.669 109.876 196.501C109.864 196.622 109.852 196.742 109.84 196.861C108.92 205.891 116.021 213.73 125.097 213.73H149.904V213.732Z" fill="#31088E"/>
<path d="M179.847 238.041C179.847 238.041 184.307 273.372 189.401 291.51C189.401 291.51 196.639 288.139 206.112 283.562C216.384 278.6 231.151 269.546 231.151 269.546L234.883 278.536C234.883 278.536 196.738 314.537 184.103 316.576C171.468 318.614 163.724 273.372 163.724 273.372L179.847 238.041Z" fill="#5359CD"/>
<path d="M230.369 270.6C230.369 270.6 229.321 265.58 231.567 262.183C233.813 258.786 237.233 252.426 241.248 251.098C244.608 249.987 239.651 255.658 239.503 259.256C239.503 259.256 244.5 258.629 248.104 257.458C251.274 256.428 257.547 255.143 260.456 254.571C261.253 254.414 261.765 255.419 261.151 255.951C260.159 256.811 258.086 257.892 253.799 258.925C253.799 258.925 264.248 256.947 265.332 258.547C266.416 260.147 253.307 262.381 253.307 262.381C253.307 262.381 263.478 261.779 263.743 263.375C263.904 264.346 253.367 266.571 253.367 266.571C253.367 266.571 262.983 266.829 260.657 268.347C259.98 268.789 241.364 270.884 234.883 278.536C234.883 278.536 230.523 274.03 230.369 270.6Z" fill="#FFA681"/>
<path d="M115.526 231.082C115.526 231.082 94.1863 237.376 75.8083 241.522C75.8083 241.522 75.3313 233.552 74.8503 223.042C74.3283 211.646 75.2673 194.35 75.2673 194.35L65.5843 195.344C65.5843 195.344 52.0633 246.023 56.2803 258.106C60.4983 270.19 114.056 253.263 114.056 253.263L115.526 231.082Z" fill="#5359CD"/>
<path d="M74.7121 195.54C74.7121 195.54 79.6261 194.074 81.5451 190.482C83.4651 186.89 88.7681 179.657 85.4951 176.979C84.3001 176.001 83.4391 180.267 80.3441 182.109C80.3441 182.109 78.5191 177.416 77.8341 173.688C77.2311 170.409 75.3781 164.281 74.4981 161.45C74.2571 160.675 73.1291 160.702 72.9541 161.495C72.6701 162.777 72.7051 165.115 73.8361 169.377C73.8361 169.377 70.6061 159.245 68.6821 159.053C66.7591 158.861 71.0301 171.454 71.0301 171.454C71.0301 171.454 66.7211 162.221 65.1921 162.748C64.2611 163.068 67.3161 173.395 67.3161 173.395C67.3161 173.395 62.5151 165.059 62.2861 167.827C62.2191 168.633 69.2321 186.004 65.5841 195.345C65.5841 195.345 71.6221 197.036 74.7121 195.54Z" fill="#FFA681"/>
<path d="M179.049 374.931L179.219 375.686C162.602 386.937 100.444 379.255 100.444 379.255C100.551 377.951 100.689 376.587 100.871 375.177C101.065 373.604 101.306 371.976 101.582 370.293C102.333 365.768 103.34 360.876 104.471 355.841C104.835 354.256 105.198 352.648 105.581 351.032C106.703 346.227 107.897 341.354 109.027 336.608C109.418 334.976 109.802 333.367 110.173 331.767C110.691 329.546 111.181 327.361 111.651 325.243C112.263 322.425 112.809 319.718 113.267 317.169C113.575 315.454 113.844 313.81 114.049 312.249C114.286 310.597 114.448 309.036 114.547 307.59C113.559 303.939 112.638 300.362 111.781 296.893C111.354 295.127 110.935 293.4 110.524 291.692C109.247 286.227 108.125 281.026 107.145 276.154C106.797 274.384 106.453 272.661 106.141 270.981C105.054 265.235 104.177 260.035 103.47 255.498C103.197 253.688 102.94 252.001 102.715 250.408C102.466 248.665 102.253 247.053 102.067 245.591C101.233 239.157 100.945 235.51 100.945 235.51C101.091 235.392 101.245 235.285 101.403 235.17C103.288 233.83 106.236 232.57 109.512 231.451C112.97 230.265 116.795 229.234 120.166 228.42C120.676 228.298 121.178 228.179 121.668 228.064C126.098 227.029 129.41 226.428 129.41 226.428C144.482 229.586 148.782 227.554 148.782 227.554L156.445 229.814L157.346 230.13L162.93 232.09L163.155 232.173L173.169 235.698L179.847 238.041L177.255 249.995L176.125 255.215L172.711 270.951L171.589 276.152L168.19 291.833L167.072 296.982L164.258 309.975L164.819 312.457L165.918 317.274L167.661 324.933L169.246 331.86L170.337 336.661L173.617 351.105L174.712 355.879L177.964 370.157L179.049 374.931Z" fill="#6D6BCE"/>
<path d="M157.345 230.13C155.741 239.551 151.173 249.029 141.677 250.052C130.205 251.293 124.257 236.903 121.669 228.063C126.099 227.028 130.69 226.016 130.69 226.016C145.762 229.173 148.67 227.25 148.67 227.25L156.444 229.814L157.345 230.13Z" fill="#FFA681"/>
<path d="M140.512 242.138C128.489 242.138 125.614 227.289 125.586 227.136C125.527 226.814 125.74 226.505 126.061 226.446C126.384 226.388 126.692 226.599 126.752 226.921C126.862 227.517 129.589 241.529 141.211 240.935C151.382 240.421 151.98 229.133 152.001 228.652C152.015 228.325 152.287 228.069 152.618 228.085C152.945 228.099 153.199 228.375 153.185 228.701C153.18 228.829 152.527 241.549 141.271 242.118C141.014 242.132 140.761 242.138 140.512 242.138Z" fill="white"/>
<path d="M118.943 238.044C118.943 239.665 117.629 240.979 116.008 240.979C114.387 240.979 113.073 239.665 113.073 238.044C113.073 236.423 114.387 235.109 116.008 235.109C117.629 235.109 118.943 236.423 118.943 238.044Z" fill="#5359CD"/>
<path d="M113.065 252.363C113.065 253.984 111.751 255.298 110.13 255.298C108.509 255.298 107.195 253.984 107.195 252.363C107.195 250.742 108.509 249.428 110.13 249.428C111.75 249.429 113.065 250.743 113.065 252.363Z" fill="#5359CD"/>
<path d="M131.803 259.133C131.803 260.754 130.489 262.068 128.868 262.068C127.247 262.068 125.933 260.754 125.933 259.133C125.933 257.512 127.247 256.198 128.868 256.198C130.49 256.198 131.803 257.513 131.803 259.133Z" fill="#5359CD"/>
<path d="M118.733 267.139C119.334 268.644 118.602 270.352 117.096 270.953C115.591 271.554 113.883 270.821 113.282 269.316C112.681 267.811 113.414 266.103 114.919 265.502C116.424 264.901 118.132 265.634 118.733 267.139Z" fill="#5359CD"/>
<path d="M144.174 272.559C144.174 274.18 142.86 275.494 141.239 275.494C139.618 275.494 138.304 274.18 138.304 272.559C138.304 270.938 139.618 269.624 141.239 269.624C142.86 269.624 144.174 270.938 144.174 272.559Z" fill="#5359CD"/>
<path d="M162.892 278.607C162.892 280.228 161.578 281.542 159.957 281.542C158.336 281.542 157.022 280.228 157.022 278.607C157.022 276.986 158.336 275.672 159.957 275.672C161.578 275.672 162.892 276.986 162.892 278.607Z" fill="#5359CD"/>
<path d="M166.658 240.978C166.658 242.599 165.344 243.913 163.723 243.913C162.102 243.913 160.788 242.599 160.788 240.978C160.788 239.357 162.102 238.043 163.723 238.043C165.344 238.044 166.658 239.357 166.658 240.978Z" fill="#5359CD"/>
<path d="M145.361 291.3C145.361 292.921 144.047 294.235 142.426 294.235C140.805 294.235 139.491 292.921 139.491 291.3C139.491 289.679 140.805 288.365 142.426 288.365C144.047 288.366 145.361 289.68 145.361 291.3Z" fill="#5359CD"/>
<path d="M127.281 300.4C127.281 302.021 125.967 303.335 124.346 303.335C122.725 303.335 121.411 302.021 121.411 300.4C121.411 298.779 122.725 297.465 124.346 297.465C125.967 297.466 127.281 298.78 127.281 300.4Z" fill="#5359CD"/>
<path d="M125.175 283.828C125.175 285.449 123.861 286.763 122.24 286.763C120.619 286.763 119.305 285.449 119.305 283.828C119.305 282.207 120.619 280.893 122.24 280.893C123.861 280.893 125.175 282.207 125.175 283.828Z" fill="#5359CD"/>
<path d="M154.088 259.901C154.088 261.522 152.774 262.836 151.153 262.836C149.532 262.836 148.218 261.522 148.218 259.901C148.218 258.28 149.532 256.966 151.153 256.966C152.774 256.966 154.088 258.28 154.088 259.901Z" fill="#5359CD"/>
<path d="M170.314 256.198C170.314 257.819 169 259.133 167.379 259.133C165.758 259.133 164.444 257.819 164.444 256.198C164.444 254.577 165.758 253.263 167.379 253.263C169 253.263 170.314 254.578 170.314 256.198Z" fill="#5359CD"/>
<path d="M159.957 296.156C159.957 297.777 158.643 299.091 157.022 299.091C155.401 299.091 154.087 297.777 154.087 296.156C154.087 294.535 155.401 293.221 157.022 293.221C158.643 293.221 159.957 294.535 159.957 296.156Z" fill="#5359CD"/>
<path d="M160.745 319.376C160.745 320.997 159.431 322.311 157.81 322.311C156.189 322.311 154.875 320.997 154.875 319.376C154.875 317.755 156.189 316.441 157.81 316.441C159.432 316.441 160.745 317.755 160.745 319.376Z" fill="#5359CD"/>
<path d="M145.807 309.688C146.408 311.193 145.676 312.901 144.17 313.502C142.665 314.103 140.957 313.37 140.356 311.865C139.755 310.36 140.488 308.652 141.993 308.051C143.499 307.45 145.206 308.183 145.807 309.688Z" fill="#5359CD"/>
<path d="M125.828 318.288C126.429 319.793 125.696 321.501 124.191 322.102C122.686 322.703 120.978 321.97 120.377 320.465C119.776 318.96 120.509 317.252 122.014 316.651C123.519 316.05 125.227 316.782 125.828 318.288Z" fill="#5359CD"/>
<path d="M185.267 411.943L184.659 408.286L182.291 394.102L181.479 389.243L179.218 375.686L175.108 375.871L120.617 378.342L100.445 379.253L99.1484 389.797L98.5414 394.709L96.7504 409.275L96.4214 411.943H185.267Z" fill="#6D6BCE"/>
<path d="M185.264 411.943L184.708 408.638L184.662 408.291L184.269 405.956L183.876 403.644L182.281 394.096L181.819 391.276L181.472 389.242L181.426 388.941L179.368 376.572L179.229 375.693L179.044 374.93L178.882 374.259L177.957 370.167L176.131 362.168L175.599 359.879L174.697 355.879L173.61 351.093L172.87 347.81L172.338 345.521L170.327 336.666L169.587 333.429L169.24 331.857L169.078 331.14L167.668 324.921C145.52 331.464 122.054 327.58 111.65 325.245C111.188 327.349 110.679 329.545 110.17 331.765C110.054 332.251 109.939 332.736 109.823 333.221C109.638 333.984 109.453 334.747 109.268 335.51C109.199 335.88 109.106 336.227 109.014 336.597C108.159 340.227 107.257 343.926 106.378 347.602C106.193 348.365 106.031 349.128 105.846 349.868C105.753 350.261 105.661 350.631 105.569 351.024C105.199 352.642 104.829 354.261 104.459 355.833C103.997 357.937 103.557 359.994 103.141 362.029C102.979 362.792 102.817 363.532 102.679 364.272C102.263 366.33 101.893 368.341 101.569 370.283C101.291 371.971 101.06 373.589 100.875 375.184C100.806 375.669 100.759 376.155 100.69 376.617C100.621 377.403 100.528 378.166 100.459 378.929C100.459 379.045 100.436 379.137 100.436 379.253L99.1415 389.795L98.9335 391.436L98.6565 393.725L98.5405 394.696L97.1075 406.232L96.8295 408.544L96.7375 409.284L96.4175 411.941H185.264V411.943Z" fill="#31088E"/>
<path d="M158.462 190.701C158.462 190.701 162.065 186.137 164.744 189.911C167.423 193.685 163.635 204.833 157.077 202.112L158.462 190.701Z" fill="#F97853"/>
<path d="M158.508 198.667C158.75 198.667 158.973 198.515 159.041 198.282C160.057 194.841 163.81 193.445 163.848 193.432C164.133 193.328 164.277 193.024 164.169 192.753C164.061 192.481 163.741 192.344 163.455 192.447C163.28 192.51 159.144 194.035 157.974 197.998C157.891 198.278 158.063 198.568 158.358 198.647C158.408 198.661 158.459 198.667 158.508 198.667Z" fill="#EA5143"/>
<path d="M162.296 196.933C162.399 196.933 162.503 196.906 162.596 196.849C162.853 196.691 162.927 196.366 162.762 196.121C162.735 196.08 162.071 195.118 160.682 194.527C160.404 194.408 160.075 194.527 159.95 194.793C159.825 195.058 159.95 195.37 160.23 195.489C161.304 195.946 161.826 196.684 161.831 196.691C161.936 196.848 162.114 196.933 162.296 196.933Z" fill="#EA5143"/>
<path d="M156.84 202.04C156.22 202.73 155.839 203.639 155.839 204.636C155.839 206.789 157.591 208.541 159.744 208.541C161.897 208.541 163.649 206.789 163.649 204.636C163.649 203.395 163.068 202.29 162.163 201.576C161.709 201.217 161.175 200.957 160.591 200.827C160.493 200.563 160.541 200.316 160.731 200.088C161.478 200.251 162.157 200.592 162.724 201.066C163.749 201.918 164.401 203.204 164.401 204.638C164.401 207.207 162.313 209.295 159.744 209.295C157.177 209.295 155.087 207.207 155.087 204.638C155.087 203.531 155.48 202.519 156.128 201.721C156.365 201.826 156.602 201.933 156.84 202.04Z" fill="white"/>
<path d="M130.69 214.02V227.695C130.69 227.695 137.046 232.599 142.005 233.025C146.959 233.457 148.671 227.611 148.671 227.611V214.884L130.69 214.02Z" fill="#FFA681"/>
<path d="M130.69 215.36V220.815C134.017 224.507 139.924 225.816 148.669 224.525L148.671 216.224L130.69 215.36Z" fill="#F97853"/>
<path d="M160.628 195.9C160.47 197.22 160.283 198.564 160.046 199.902C158.475 208.795 152.85 218.4 145.747 220.012C130.41 223.493 124.041 211.447 121.589 202.56C121.318 201.573 121.826 200.442 121.612 199.273C121.104 196.504 119.985 193.358 119.731 190.255C119.556 188.105 119.432 185.984 119.341 184.068C119.092 178.664 122.222 173.697 127.115 171.758C134.165 168.954 144.871 166.733 155.012 172.681C158.758 174.878 161.108 178.944 161.193 183.396C161.255 186.797 161.17 191.243 160.628 195.9Z" fill="#FFA681"/>
<path d="M141.177 202.781C140.891 202.781 140.639 202.575 140.59 202.284C140.536 201.959 140.754 201.652 141.079 201.598L143.125 201.254L140.306 193.747C140.19 193.439 140.346 193.096 140.654 192.98C140.962 192.866 141.306 193.02 141.421 193.328L144.748 202.189L141.276 202.772C141.243 202.778 141.21 202.781 141.177 202.781Z" fill="#F97853"/>
<path d="M148.517 192.848C148.517 194.16 149.193 195.224 150.028 195.224C150.862 195.224 151.539 194.16 151.539 192.848C151.539 191.536 150.863 190.472 150.028 190.472C149.193 190.472 148.517 191.536 148.517 192.848Z" fill="#31088E"/>
<path d="M131.817 192.848C131.817 194.16 132.493 195.224 133.328 195.224C134.163 195.224 134.839 194.16 134.839 192.848C134.839 191.536 134.163 190.472 133.328 190.472C132.493 190.472 131.817 191.536 131.817 192.848Z" fill="#31088E"/>
<path d="M154.469 186.616C153.254 186.379 150.798 185.988 148.182 186.081C147.494 186.105 146.942 186.624 147.037 187.172L147.039 187.186C147.115 187.623 147.584 187.918 148.134 187.876C149.917 187.742 154.581 187.771 156.752 188.417C156.812 188.103 156.602 187.769 156.296 187.477C155.831 187.033 155.179 186.754 154.469 186.616Z" fill="#31088E"/>
<path d="M130.181 186.902C131.392 186.649 133.843 186.224 136.46 186.28C137.149 186.295 137.707 186.806 137.62 187.355L137.618 187.369C137.548 187.808 137.084 188.108 136.533 188.074C134.748 187.964 130.086 188.057 127.924 188.733C127.859 188.419 128.065 188.083 128.368 187.786C128.824 187.338 129.473 187.05 130.181 186.902Z" fill="#31088E"/>
<path d="M148.516 206.327C148.075 208.416 146.607 212.258 141.663 212.258C136.707 212.258 135.317 208.747 134.839 206.327H148.516Z" fill="white"/>
<path d="M141.733 215.848C143.16 215.848 144.419 215.08 144.473 215.047C144.747 214.877 144.832 214.518 144.663 214.243C144.494 213.969 144.135 213.884 143.86 214.052C143.85 214.058 142.822 214.68 141.734 214.68C140.556 214.68 139.501 214.056 139.491 214.05C139.214 213.884 138.856 213.973 138.69 214.249C138.524 214.525 138.612 214.883 138.887 215.05C138.94 215.083 140.221 215.848 141.733 215.848Z" fill="#F97853"/>
<path d="M161.247 194.504C161.104 194.624 160.966 194.582 160.837 194.348C158.811 190.777 160.715 183.652 154.72 180.92C150.154 178.837 148.515 174.564 148.515 174.564C147.471 176.351 144.751 177.99 144.751 177.99C144.751 177.99 137.855 182.076 130.689 184.837C128.559 185.658 127.042 186.491 125.98 187.206C126.063 187.229 126.107 187.242 126.107 187.242C126.107 187.242 124.123 190.465 125.574 195.476C127.026 200.484 125.158 208.748 121.935 210.655C121.992 210.515 124.41 204.8 123.044 200.138C122.257 197.465 122.264 193.213 121.518 190.664C120.692 190.095 118.782 189.136 118.135 188.751C117.951 186.559 117.818 184.398 117.725 182.445C117.463 176.936 120.761 171.874 125.92 169.895C133.351 167.038 144.637 164.776 155.327 170.838C159.275 173.077 161.753 177.222 161.844 181.76C161.91 185.224 161.819 189.756 161.247 194.504Z" fill="#31088E"/>
<path d="M121.519 190.664C121.519 190.664 117.33 185.581 114.858 189.246C112.386 192.911 116.036 204.147 122.088 201.505L121.519 190.664Z" fill="#FFA681"/>
<path d="M121.688 201.686C122.121 202.506 122.271 203.48 122.029 204.447C121.507 206.536 119.382 207.81 117.293 207.288C115.204 206.765 113.93 204.641 114.452 202.552C114.753 201.348 115.585 200.417 116.637 199.944C117.164 199.706 117.745 199.583 118.343 199.598C118.447 199.375 118.5 199.133 118.386 198.847C117.622 198.824 116.88 198.99 116.216 199.312C115.015 199.89 114.07 200.979 113.723 202.37C113.1 204.862 114.618 207.395 117.111 208.018C119.601 208.641 122.136 207.123 122.759 204.63C123.028 203.556 122.892 202.479 122.457 201.547C122.2 201.594 121.944 201.641 121.688 201.686Z" fill="white"/>
<path d="M120.611 197.748C120.387 197.748 120.182 197.6 120.119 197.374C119.181 194.032 115.719 192.677 115.684 192.664C115.421 192.563 115.288 192.268 115.388 192.004C115.488 191.74 115.783 191.607 116.047 191.707C116.209 191.768 120.025 193.249 121.105 197.098C121.181 197.37 121.023 197.652 120.751 197.729C120.704 197.742 120.657 197.748 120.611 197.748Z" fill="#F97853"/>
<path d="M117.116 196.065C117.021 196.065 116.925 196.039 116.84 195.984C116.602 195.831 116.534 195.515 116.687 195.277C116.713 195.238 117.325 194.303 118.607 193.73C118.863 193.614 119.167 193.73 119.283 193.988C119.398 194.246 119.283 194.548 119.025 194.664C118.034 195.107 117.552 195.825 117.548 195.831C117.449 195.982 117.284 196.065 117.116 196.065Z" fill="#F97853"/>
<path d="M343.402 301.032C333.654 308.03 318.403 312.83 318.403 312.83L315.28 301.598L312.844 292.835L311.125 286.659L293.645 286.647C294.592 289.923 295.57 293.269 296.553 296.565C297.814 300.816 299.072 304.979 300.268 308.817C301.955 314.218 303.511 318.968 304.765 322.362C305.058 323.154 305.399 324.016 305.78 324.936C308.116 331.247 310.003 338.092 318.92 333.798C326.77 330.017 337.416 324.776 342.736 321.296L343.402 301.032Z" fill="#FFA681"/>
<path d="M296.551 296.565C297.812 300.815 299.069 304.979 300.266 308.816C307.401 308.06 312.341 304.524 315.28 301.598L312.844 292.836L296.551 296.565Z" fill="#F97853"/>
<path d="M292.84 235.262C292.84 235.262 311.075 278.751 318.918 292.841C318.918 292.841 307.927 302.186 297.221 302.441C297.221 302.441 291.051 254.694 292.84 235.262Z" fill="#2A31B0"/>
<path d="M250.145 411.974C250.328 408.93 250.501 406.034 250.659 403.348C251.304 392.37 251.72 384.877 251.72 384.877L247.421 384.684L244.997 384.575L215.768 383.277C215.768 383.277 215.236 391.657 214.609 403.963C214.481 406.481 214.348 409.165 214.215 411.973H250.145V411.974Z" fill="#6D6BCE"/>
<path d="M247.42 384.685L251.719 384.878C251.719 384.878 251.304 392.371 250.658 403.349C239.428 404.285 227.167 404.666 214.608 403.964C215.235 391.658 215.767 383.278 215.767 383.278L244.996 384.576L247.42 384.685Z" fill="#5359CD"/>
<path d="M245.886 411.974C246.564 400.247 247.121 390.202 247.423 384.686L244.999 384.577C244.696 390.117 244.137 400.208 243.457 411.974H245.886Z" fill="#5359CD"/>
<path d="M259.565 411.974H295.495C295.362 409.165 295.23 406.482 295.101 403.964C294.474 391.658 293.942 383.278 293.942 383.278L264.713 384.576L262.29 384.685L257.991 384.878C257.991 384.878 258.406 392.371 259.051 403.349C259.209 406.034 259.382 408.931 259.565 411.974Z" fill="#6D6BCE"/>
<path d="M262.29 384.685L257.99 384.878C257.99 384.878 258.405 392.371 259.051 403.349C270.281 404.285 282.542 404.666 295.101 403.964C294.474 391.658 293.942 383.278 293.942 383.278L264.713 384.576L262.29 384.685Z" fill="#5359CD"/>
<path d="M266.253 411.974C265.573 400.208 265.015 390.117 264.711 384.577L262.287 384.686C262.589 390.202 263.145 400.247 263.824 411.974H266.253Z" fill="#5359CD"/>
<path d="M209.424 362.437C209.42 363.039 209.424 363.633 209.424 364.218C209.437 374.908 209.49 383.192 209.543 387.259C219.868 390.056 230.192 391.863 240.521 392.698C240.992 392.733 241.453 392.768 241.924 392.803C242.175 392.821 242.425 392.838 242.676 392.851C243.23 392.891 243.788 392.926 244.338 392.952C244.954 392.992 245.565 393.022 246.185 393.053C253.212 393.378 260.238 393.251 267.27 392.675C268.69 392.556 270.102 392.42 271.522 392.266C271.614 392.257 271.702 392.248 271.795 392.24C272.156 392.2 272.516 392.156 272.881 392.112C273.101 392.086 273.321 392.059 273.536 392.033C281.71 391.057 289.885 389.461 298.064 387.258C298.086 385.411 298.095 382.672 298.095 379.22C298.095 378.578 298.095 377.919 298.091 377.228V377.224C298.087 372.286 298.056 366.139 298.003 359.191C297.999 358.597 297.994 357.999 297.99 357.392C297.95 352.766 297.902 347.811 297.84 342.644C297.831 342.046 297.827 341.448 297.818 340.846C297.752 335.547 297.673 330.042 297.581 324.453C297.524 321.041 297.462 317.598 297.392 314.15C297.322 310.659 297.247 307.163 297.163 303.689C297.145 302.933 297.128 302.176 297.106 301.42C296.306 268.568 294.921 238.373 292.63 235.005C291.043 232.674 287.406 229.935 283.123 227.174C282.6 226.84 282.068 226.501 281.527 226.163C279.702 225.024 264.818 219.967 262.927 218.855L247.194 217.756C247.097 217.813 232.054 222.888 231.958 222.94C231.312 223.309 230.656 223.683 230.01 224.057C224.439 227.271 218.942 230.657 215.776 233.573C215.314 233.995 214.901 234.408 214.549 234.813C214.268 235.134 214.017 235.446 213.815 235.754C213.626 236.031 213.441 236.497 213.265 237.135C211.361 244.052 210.363 271.235 209.866 300.811C209.831 302.931 209.8 305.063 209.769 307.2C209.756 308.137 209.743 309.078 209.729 310.019C209.716 310.665 209.707 311.316 209.703 311.963C209.699 312.288 209.694 312.609 209.69 312.935C209.668 314.544 209.65 316.149 209.637 317.746C209.624 318.929 209.611 320.107 209.597 321.286C209.455 336.181 209.411 350.648 209.424 362.437Z" fill="#5359CD"/>
<path d="M181.29 404.678C180.903 408.877 186.017 406.6 184.57 398.091C183.128 389.583 187.226 381.879 188.994 382.125C190.766 382.376 187.53 391.416 189.104 394.675C190.674 397.933 192.705 391.601 194.728 387.762C196.826 383.774 196.702 375.072 195.748 368.863C194.794 362.65 206.051 324.926 206.108 313.995L207.48 309.361L212.502 292.392L220.364 265.82C220.364 265.82 215.654 245.707 207.713 247.435C207.713 247.435 203.509 261.444 199.016 277.244C198.255 279.926 197.486 282.661 196.725 285.388C193.524 296.843 190.516 308.152 189.118 314.862C185.424 332.578 185.139 369.405 185.139 369.405C185.139 369.405 178.622 382.935 178.468 388.955C178.304 395.374 181.672 400.479 181.29 404.678Z" fill="#FFA681"/>
<path d="M196.724 285.386L207.48 309.36L212.502 292.391L199.016 277.243C198.254 279.925 197.485 282.66 196.724 285.386Z" fill="#F97853"/>
<path d="M196.191 278.245C200.909 286.336 205.707 294.383 210.486 302.443C212.06 297.171 213.692 292.11 215.222 287.457C215.226 287.444 215.231 287.435 215.235 287.422C215.846 285.562 216.444 283.768 217.016 282.053C217.025 282.022 217.034 281.991 217.047 281.965C217.245 281.363 217.438 280.769 217.636 280.189V280.185C219.918 273.286 221.686 267.802 222.191 264.606C223.554 256.001 219.839 239.142 214.606 235.817C214.47 236.12 214.057 235.184 213.811 235.756C212.892 237.88 208.811 243.126 206.792 248.235C206.533 248.886 206.269 249.563 205.996 250.253C203.072 257.767 199.497 267.542 196.191 278.245Z" fill="#5359CD"/>
<path d="M254.363 233.488C261.176 233.488 265.979 227.272 266.18 227.007C266.467 226.63 266.413 226.076 266.061 225.77C265.709 225.464 265.191 225.521 264.904 225.897C264.842 225.978 260.37 231.729 254.363 231.729C248.427 231.729 244.806 225.221 244.771 225.155C244.542 224.736 244.038 224.594 243.647 224.838C243.255 225.082 243.121 225.619 243.349 226.039C243.514 226.343 247.469 233.488 254.363 233.488Z" fill="#2A31B0"/>
<path d="M283.169 293.048C283.295 293.048 283.422 293.017 283.543 292.952C283.951 292.731 284.115 292.197 283.908 291.76L280.937 285.481C280.731 285.044 280.232 284.869 279.823 285.091C279.414 285.312 279.251 285.846 279.458 286.283L282.429 292.562C282.574 292.871 282.866 293.048 283.169 293.048Z" fill="#2A31B0"/>
<path d="M289.361 287.905C289.468 287.976 289.591 288.022 289.726 288.035C290.182 288.078 290.585 287.718 290.625 287.23L291.207 280.22C291.248 279.733 290.911 279.301 290.454 279.258C289.998 279.215 289.595 279.575 289.555 280.063L288.973 287.073C288.944 287.418 289.104 287.733 289.361 287.905Z" fill="#2A31B0"/>
<path d="M273.398 277.036C273.797 277.036 274.148 276.728 274.215 276.294L275.288 269.351C275.362 268.868 275.057 268.411 274.605 268.331C274.152 268.252 273.726 268.578 273.652 269.062L272.579 276.005C272.505 276.488 272.81 276.945 273.262 277.025C273.308 277.032 273.354 277.036 273.398 277.036Z" fill="#2A31B0"/>
<path d="M246.706 279.62C246.85 279.62 246.995 279.58 247.128 279.496C247.522 279.247 247.653 278.703 247.419 278.281L244.067 272.226C243.834 271.805 243.325 271.665 242.931 271.915C242.537 272.165 242.406 272.708 242.64 273.13L245.992 279.186C246.146 279.465 246.423 279.62 246.706 279.62Z" fill="#2A31B0"/>
<path d="M279.497 252.479C279.651 252.479 279.807 252.433 279.946 252.337L285.471 248.515C285.856 248.249 285.966 247.7 285.717 247.289C285.468 246.878 284.955 246.76 284.57 247.026L279.045 250.848C278.66 251.114 278.55 251.663 278.799 252.074C278.959 252.336 279.225 252.479 279.497 252.479Z" fill="#2A31B0"/>
<path d="M254.885 308.894C255.011 308.894 255.138 308.863 255.259 308.798C255.667 308.577 255.831 308.043 255.624 307.606L252.653 301.327C252.446 300.89 251.948 300.715 251.539 300.936C251.131 301.157 250.967 301.691 251.174 302.128L254.145 308.407C254.29 308.716 254.582 308.894 254.885 308.894Z" fill="#2A31B0"/>
<path d="M267.939 257.203C268.215 257.203 268.485 257.056 268.643 256.787C268.886 256.372 268.768 255.824 268.38 255.565L262.803 251.831C262.415 251.572 261.903 251.696 261.66 252.112C261.417 252.527 261.535 253.075 261.923 253.334L267.5 257.068C267.637 257.159 267.789 257.203 267.939 257.203Z" fill="#2A31B0"/>
<path d="M281.204 231.094C281.192 231.265 281.225 231.433 281.299 231.573C281.426 231.833 281.677 232.017 281.973 232.039C282.429 232.074 282.824 231.705 282.857 231.217L283.12 227.176C282.598 226.842 282.067 226.503 281.525 226.165L281.204 231.094Z" fill="#2A31B0"/>
<path d="M288.639 269.62C288.915 269.62 289.185 269.473 289.343 269.204C289.586 268.789 289.468 268.241 289.08 267.982L283.503 264.248C283.115 263.989 282.603 264.113 282.36 264.529C282.117 264.944 282.235 265.491 282.623 265.751L288.2 269.485C288.336 269.576 288.488 269.62 288.639 269.62Z" fill="#2A31B0"/>
<path d="M244.162 238.98C244.318 238.98 244.477 238.933 244.617 238.834C244.999 238.564 245.105 238.015 244.853 237.606L241.673 232.444C241.422 232.035 240.907 231.921 240.525 232.191C240.143 232.461 240.037 233.01 240.289 233.42L243.469 238.582C243.628 238.839 243.892 238.98 244.162 238.98Z" fill="#2A31B0"/>
<path d="M241.311 328.147C241.529 328.147 241.746 328.056 241.909 327.874L246.466 322.797C246.783 322.444 246.772 321.883 246.442 321.544C246.112 321.204 245.587 321.216 245.27 321.57L240.713 326.646C240.395 326.999 240.407 327.56 240.737 327.9C240.898 328.065 241.105 328.147 241.311 328.147Z" fill="#2A31B0"/>
<path d="M258.056 327.091C258.274 327.091 258.491 327 258.654 326.818L263.211 321.741C263.529 321.388 263.517 320.827 263.187 320.488C262.856 320.148 262.332 320.16 262.015 320.513L257.458 325.59C257.141 325.943 257.152 326.504 257.482 326.844C257.643 327.009 257.85 327.091 258.056 327.091Z" fill="#2A31B0"/>
<path d="M270.095 361.406C270.171 361.188 270.168 360.938 270.066 360.711L267.221 354.365C267.023 353.923 266.528 353.737 266.115 353.949C265.702 354.161 265.528 354.69 265.726 355.132L268.571 361.478C268.769 361.92 269.264 362.106 269.677 361.894C269.879 361.791 270.023 361.612 270.095 361.406Z" fill="#2A31B0"/>
<path d="M222.041 382.344C222.118 382.126 222.114 381.876 222.012 381.649L219.167 375.303C218.969 374.861 218.474 374.675 218.061 374.887C217.648 375.099 217.474 375.628 217.672 376.07L220.517 382.416C220.715 382.858 221.21 383.044 221.623 382.832C221.825 382.729 221.969 382.551 222.041 382.344Z" fill="#2A31B0"/>
<path d="M242.676 392.854C243.231 392.893 243.786 392.929 244.337 392.955L244.917 389.002C244.987 388.518 244.678 388.065 244.226 387.991C243.774 387.916 243.35 388.246 243.28 388.73L242.676 392.854Z" fill="#2A31B0"/>
<path d="M236.058 380.907C236.237 380.774 236.366 380.566 236.402 380.317L237.42 373.364C237.491 372.88 237.182 372.427 236.729 372.351C236.276 372.275 235.853 372.606 235.782 373.09L234.764 380.043C234.693 380.527 235.002 380.98 235.455 381.056C235.675 381.094 235.889 381.034 236.058 380.907Z" fill="#2A31B0"/>
<path d="M276.067 322.775C276.208 322.775 276.351 322.736 276.482 322.655C276.878 322.41 277.013 321.867 276.784 321.443L273.488 315.353C273.259 314.929 272.752 314.785 272.355 315.03C271.959 315.275 271.823 315.818 272.053 316.242L275.349 322.333C275.502 322.616 275.78 322.775 276.067 322.775Z" fill="#2A31B0"/>
<path d="M266.388 307.551C266.688 307.551 266.978 307.376 267.126 307.071L270.142 300.817C270.352 300.382 270.192 299.847 269.785 299.622C269.379 299.396 268.879 299.568 268.668 300.004L265.651 306.258C265.441 306.693 265.601 307.228 266.008 307.452C266.13 307.519 266.26 307.551 266.388 307.551Z" fill="#2A31B0"/>
<path d="M292.6 306.634C292.686 306.744 292.797 306.827 292.912 306.88C293.192 307.003 293.52 306.959 293.767 306.739L297.159 303.692C297.142 302.936 297.126 302.179 297.106 301.423L292.699 305.38C292.35 305.697 292.304 306.255 292.6 306.634Z" fill="#2A31B0"/>
<path d="M266.431 241.2C266.732 241.2 267.021 241.025 267.169 240.72L270.186 234.466C270.396 234.031 270.236 233.496 269.829 233.271C269.423 233.046 268.923 233.217 268.712 233.653L265.696 239.907C265.486 240.342 265.646 240.877 266.053 241.102C266.173 241.169 266.303 241.2 266.431 241.2Z" fill="#2A31B0"/>
<path d="M247.096 264.112C247.148 264.112 247.201 264.107 247.254 264.096C247.704 264.003 247.998 263.538 247.911 263.057L246.663 256.148C246.576 255.666 246.141 255.353 245.692 255.445C245.242 255.538 244.948 256.003 245.035 256.484L246.283 263.393C246.359 263.818 246.706 264.112 247.096 264.112Z" fill="#2A31B0"/>
<path d="M257.861 270.179C257.913 270.179 257.966 270.174 258.019 270.163C258.469 270.07 258.763 269.605 258.676 269.124L257.428 262.215C257.341 261.733 256.906 261.421 256.457 261.512C256.007 261.605 255.713 262.07 255.8 262.551L257.048 269.461C257.124 269.885 257.471 270.179 257.861 270.179Z" fill="#2A31B0"/>
<path d="M250.149 247.382C250.424 247.382 250.692 247.237 250.85 246.971L254.376 241.03C254.621 240.617 254.507 240.068 254.12 239.806C253.732 239.544 253.221 239.667 252.975 240.079L249.449 246.02C249.204 246.433 249.318 246.982 249.705 247.244C249.843 247.338 249.997 247.382 250.149 247.382Z" fill="#2A31B0"/>
<path d="M282.495 308.649C282.722 308.39 282.79 308 282.638 307.66L279.804 301.309C279.607 300.867 279.112 300.68 278.699 300.891C278.284 301.102 278.11 301.631 278.308 302.073L281.142 308.424C281.339 308.866 281.834 309.053 282.247 308.842C282.344 308.794 282.427 308.728 282.495 308.649Z" fill="#2A31B0"/>
<path d="M261.164 290.223C261.495 290.223 261.808 290.009 261.936 289.659L264.334 283.106C264.501 282.65 264.291 282.136 263.864 281.957C263.437 281.778 262.956 282.003 262.79 282.46L260.392 289.013C260.225 289.469 260.435 289.983 260.862 290.162C260.961 290.203 261.063 290.223 261.164 290.223Z" fill="#2A31B0"/>
<path d="M234.818 330.699C234.944 330.699 235.071 330.668 235.192 330.603C235.6 330.382 235.764 329.848 235.557 329.411L232.586 323.132C232.38 322.695 231.881 322.52 231.472 322.741C231.064 322.962 230.9 323.496 231.107 323.933L234.078 330.212C234.223 330.521 234.515 330.699 234.818 330.699Z" fill="#2A31B0"/>
<path d="M278.483 375.827C278.484 375.961 278.514 376.098 278.576 376.226C278.786 376.661 279.287 376.831 279.694 376.605L285.536 373.368C285.942 373.144 286.102 372.608 285.891 372.173C285.681 371.738 285.18 371.569 284.773 371.794L278.931 375.031C278.643 375.189 278.48 375.503 278.483 375.827Z" fill="#2A31B0"/>
<path d="M294.343 379.852C294.343 379.988 294.372 380.125 294.434 380.252C294.644 380.687 295.145 380.854 295.552 380.63L298.093 379.223C298.093 378.581 298.093 377.921 298.089 377.231L294.792 379.056C294.504 379.214 294.339 379.53 294.343 379.852Z" fill="#2A31B0"/>
<path d="M269.795 387.678L271.793 392.242C272.155 392.203 272.517 392.159 272.882 392.114C273.1 392.088 273.318 392.061 273.536 392.035L271.295 386.925C271.102 386.481 270.609 386.287 270.193 386.498C269.779 386.707 269.598 387.234 269.795 387.678Z" fill="#2A31B0"/>
<path d="M224.036 314.686C224.435 314.686 224.786 314.378 224.853 313.944L225.926 307.001C226.001 306.518 225.695 306.061 225.243 305.981C224.79 305.902 224.365 306.228 224.29 306.712L223.217 313.655C223.143 314.138 223.448 314.595 223.9 314.675C223.945 314.682 223.991 314.686 224.036 314.686Z" fill="#2A31B0"/>
<path d="M223.351 263.456C223.495 263.456 223.64 263.416 223.772 263.332C224.166 263.083 224.297 262.539 224.063 262.117L220.711 256.062C220.478 255.641 219.969 255.501 219.576 255.751C219.182 256.001 219.051 256.544 219.285 256.966L222.637 263.021C222.792 263.301 223.068 263.456 223.351 263.456Z" fill="#2A31B0"/>
<path d="M234.128 288.069C234.282 288.069 234.438 288.023 234.577 287.927L240.102 284.105C240.487 283.839 240.597 283.29 240.348 282.879C240.099 282.468 239.586 282.35 239.202 282.616L233.677 286.438C233.292 286.704 233.182 287.253 233.431 287.664C233.59 287.926 233.856 288.069 234.128 288.069Z" fill="#2A31B0"/>
<path d="M292.627 329.349C292.753 329.349 292.88 329.318 293.001 329.253C293.409 329.032 293.573 328.498 293.366 328.061L290.395 321.782C290.188 321.345 289.69 321.17 289.281 321.392C288.872 321.613 288.709 322.147 288.916 322.583L291.887 328.862C292.033 329.172 292.324 329.349 292.627 329.349Z" fill="#2A31B0"/>
<path d="M224.715 297.607C224.991 297.607 225.261 297.46 225.419 297.191C225.662 296.776 225.544 296.228 225.156 295.969L219.579 292.235C219.191 291.976 218.679 292.1 218.436 292.516C218.193 292.931 218.311 293.478 218.699 293.738L224.276 297.472C224.412 297.563 224.565 297.607 224.715 297.607Z" fill="#2A31B0"/>
<path d="M238.085 306.489C238.288 306.689 238.58 306.777 238.866 306.694C239.308 306.565 239.569 306.078 239.449 305.606L237.722 298.815C237.601 298.343 237.147 298.063 236.704 298.192C236.262 298.321 236.001 298.808 236.121 299.28L237.848 306.071C237.891 306.237 237.975 306.38 238.085 306.489Z" fill="#2A31B0"/>
<path d="M214.547 234.814L215.99 237.153C216.15 237.408 216.413 237.549 216.685 237.549C216.841 237.549 216.997 237.505 217.137 237.404C217.519 237.136 217.626 236.586 217.375 236.177L215.772 233.574C215.312 233.996 214.9 234.409 214.547 234.814Z" fill="#2A31B0"/>
<path d="M208.24 250.253L209.774 252.742C209.934 253.001 210.197 253.142 210.469 253.142C210.625 253.142 210.782 253.094 210.925 252.997C211.307 252.724 211.41 252.175 211.159 251.766L208.984 248.235C208.742 248.885 208.495 249.562 208.24 250.253Z" fill="#2A31B0"/>
<path d="M279.955 351.273C280.173 351.273 280.39 351.182 280.553 351L285.11 345.924C285.427 345.571 285.416 345.01 285.086 344.67C284.756 344.33 284.231 344.342 283.914 344.696L279.357 349.772C279.04 350.125 279.051 350.686 279.381 351.026C279.541 351.191 279.748 351.273 279.955 351.273Z" fill="#2A31B0"/>
<path d="M249.634 369.02C249.852 369.02 250.069 368.929 250.232 368.747L254.789 363.67C255.106 363.317 255.095 362.756 254.765 362.416C254.435 362.076 253.91 362.088 253.593 362.442L249.036 367.518C248.719 367.871 248.73 368.432 249.06 368.772C249.221 368.938 249.428 369.02 249.634 369.02Z" fill="#2A31B0"/>
<path d="M241.207 361.971C241.344 361.79 241.415 361.552 241.385 361.302L240.563 354.32C240.506 353.834 240.091 353.49 239.637 353.551C239.182 353.612 238.86 354.055 238.918 354.542L239.74 361.524C239.797 362.01 240.212 362.354 240.666 362.293C240.888 362.263 241.077 362.142 241.207 361.971Z" fill="#2A31B0"/>
<path d="M258.477 381.65C258.695 381.65 258.912 381.559 259.075 381.377L263.632 376.301C263.949 375.948 263.938 375.387 263.608 375.048C263.278 374.708 262.753 374.72 262.436 375.074L257.879 380.151C257.561 380.504 257.573 381.065 257.903 381.404C258.064 381.568 258.271 381.65 258.477 381.65Z" fill="#2A31B0"/>
<path d="M209.424 362.439C209.42 363.041 209.424 363.635 209.424 364.22L214.567 364.682C215.023 364.726 215.426 364.361 215.463 363.873C215.504 363.385 215.163 362.958 214.706 362.914L209.424 362.439Z" fill="#2A31B0"/>
<path d="M269.662 340.598C269.88 340.598 270.097 340.506 270.26 340.325L274.817 335.248C275.134 334.895 275.123 334.334 274.793 333.994C274.462 333.654 273.938 333.666 273.621 334.02L269.064 339.096C268.747 339.449 268.758 340.011 269.088 340.35C269.249 340.516 269.455 340.598 269.662 340.598Z" fill="#2A31B0"/>
<path d="M247.738 338.392C247.752 338.624 247.852 338.85 248.032 339.012L253.068 343.541C253.418 343.856 253.941 343.808 254.236 343.433C254.531 343.057 254.486 342.499 254.135 342.184L249.099 337.655C248.749 337.34 248.226 337.388 247.931 337.763C247.787 337.945 247.724 338.171 247.738 338.392Z" fill="#2A31B0"/>
<path d="M223.743 363.304C223.884 363.304 224.027 363.266 224.157 363.185C224.553 362.94 224.689 362.397 224.459 361.973L221.163 355.882C220.934 355.458 220.427 355.314 220.03 355.559C219.634 355.804 219.498 356.347 219.728 356.771L223.024 362.862C223.178 363.146 223.457 363.304 223.743 363.304Z" fill="#2A31B0"/>
<path d="M218.037 345.201C218.338 345.201 218.627 345.026 218.775 344.721L221.792 338.467C222.002 338.032 221.842 337.497 221.435 337.273C221.029 337.047 220.529 337.219 220.318 337.654L217.301 343.908C217.091 344.343 217.251 344.878 217.658 345.103C217.779 345.169 217.909 345.201 218.037 345.201Z" fill="#2A31B0"/>
<path d="M227.035 274.193C227.335 274.193 227.625 274.018 227.773 273.713L230.789 267.459C230.999 267.024 230.839 266.489 230.432 266.264C230.026 266.039 229.526 266.21 229.315 266.646L226.299 272.9C226.089 273.335 226.249 273.87 226.656 274.095C226.777 274.161 226.907 274.193 227.035 274.193Z" fill="#2A31B0"/>
<path d="M223.741 247.948C223.793 247.948 223.846 247.943 223.899 247.932C224.349 247.839 224.643 247.374 224.556 246.893L223.308 239.984C223.221 239.503 222.786 239.189 222.337 239.281C221.887 239.374 221.593 239.839 221.68 240.32L222.928 247.229C223.005 247.654 223.352 247.948 223.741 247.948Z" fill="#2A31B0"/>
<path d="M208.589 271.791C208.641 271.791 208.694 271.786 208.747 271.775C209.197 271.682 209.491 271.217 209.404 270.736L208.156 263.827C208.069 263.346 207.634 263.032 207.185 263.124C206.735 263.217 206.441 263.682 206.528 264.163L207.776 271.072C207.853 271.497 208.2 271.791 208.589 271.791Z" fill="#2A31B0"/>
<path d="M234.506 254.015C234.558 254.015 234.611 254.01 234.664 253.999C235.114 253.906 235.408 253.441 235.321 252.96L234.073 246.051C233.986 245.569 233.551 245.257 233.102 245.348C232.652 245.441 232.358 245.906 232.445 246.387L233.693 253.296C233.769 253.72 234.117 254.015 234.506 254.015Z" fill="#2A31B0"/>
<path d="M229.566 229.946C229.726 229.985 229.883 229.972 230.026 229.92C230.285 229.823 230.495 229.59 230.561 229.287L231.955 222.942C231.31 223.311 230.656 223.685 230.006 224.059L228.949 228.878C228.842 229.357 229.117 229.832 229.566 229.946Z" fill="#2A31B0"/>
<path d="M210.597 282.474C210.871 282.474 211.14 282.329 211.298 282.063L214.824 276.122C215.069 275.708 214.955 275.16 214.569 274.898C214.181 274.636 213.67 274.759 213.424 275.171L209.898 281.112C209.653 281.526 209.767 282.074 210.153 282.336C210.291 282.429 210.445 282.474 210.597 282.474Z" fill="#2A31B0"/>
<path d="M234.145 346.3C234.372 346.041 234.439 345.651 234.288 345.311L231.455 338.96C231.258 338.518 230.763 338.331 230.35 338.542C229.935 338.753 229.761 339.283 229.959 339.724L232.792 346.075C232.989 346.517 233.484 346.705 233.897 346.493C233.993 346.444 234.076 346.378 234.145 346.3Z" fill="#2A31B0"/>
<path d="M292.465 358.235L298.003 359.194C297.999 358.6 297.995 358.002 297.986 357.396L292.732 356.481C292.28 356.406 291.852 356.732 291.782 357.215C291.708 357.698 292.012 358.156 292.465 358.235Z" fill="#2A31B0"/>
<path d="M294.15 342.009L297.838 342.647C297.83 342.049 297.826 341.451 297.817 340.849L294.417 340.26C293.965 340.181 293.541 340.511 293.467 340.994C293.394 341.477 293.698 341.93 294.15 342.009Z" fill="#2A31B0"/>
<path d="M212.813 327.873C213.145 327.873 213.458 327.659 213.585 327.309L215.983 320.756C216.15 320.3 215.94 319.786 215.513 319.607C215.086 319.428 214.605 319.653 214.439 320.11L212.041 326.663C211.874 327.119 212.085 327.633 212.511 327.812C212.611 327.853 212.713 327.873 212.813 327.873Z" fill="#2A31B0"/>
<path d="M209.767 307.199C211.324 300.766 213.28 293.616 215.219 287.456C215.223 287.443 215.228 287.434 215.232 287.421C215.83 285.517 216.428 283.71 217.013 282.052C217.022 282.021 217.031 281.991 217.044 281.964C217.224 281.441 217.409 280.935 217.589 280.443C217.615 280.355 217.633 280.271 217.633 280.188V280.184C217.633 279.889 217.448 279.612 217.154 279.502C216.771 279.366 216.349 279.559 216.213 279.942C214.225 285.359 211.877 293.16 209.863 300.811C209.829 302.929 209.798 305.062 209.767 307.199Z" fill="#2A31B0"/>
<path d="M233.541 182.998C233.541 182.998 227.767 176.635 229.946 169.232C232.125 161.83 238.086 161.911 238.086 161.911C238.086 161.911 241.564 154.038 247.487 153.778C253.41 153.518 258.994 142.999 264.383 145.856C269.773 148.713 263.799 154.947 263.799 154.947C263.799 154.947 273.033 145.207 276.078 148.064C279.123 150.921 271.85 158.583 271.85 158.583C271.85 158.583 279.609 153.129 282.158 155.206C284.707 157.284 276.078 166.245 276.078 166.245C276.078 166.245 281.661 176.31 276.042 180.823L233.541 182.998Z" fill="#31088E"/>
<path d="M273.88 185.128C273.88 185.128 277.572 180.205 280.317 184.276C283.062 188.346 279.181 200.369 272.46 197.434L273.88 185.128Z" fill="#F97853"/>
<path d="M273.929 193.719C274.177 193.719 274.405 193.555 274.476 193.304C275.518 189.592 279.363 188.087 279.402 188.073C279.695 187.961 279.842 187.633 279.731 187.341C279.62 187.048 279.292 186.9 279 187.011C278.82 187.079 274.583 188.724 273.383 192.998C273.298 193.3 273.475 193.613 273.777 193.698C273.827 193.712 273.878 193.719 273.929 193.719Z" fill="#EA5143"/>
<path d="M277.81 191.849C277.916 191.849 278.022 191.82 278.117 191.759C278.381 191.589 278.457 191.238 278.287 190.974C278.259 190.93 277.578 189.892 276.155 189.256C275.87 189.127 275.533 189.256 275.405 189.542C275.277 189.828 275.405 190.164 275.691 190.292C276.792 190.784 277.326 191.581 277.332 191.589C277.441 191.758 277.624 191.849 277.81 191.849Z" fill="#EA5143"/>
<path d="M235.832 185.128C235.832 185.128 232.14 180.205 229.395 184.276C226.65 188.346 230.531 200.369 237.252 197.434L235.832 185.128Z" fill="#F97853"/>
<path d="M235.785 193.719C235.537 193.719 235.309 193.555 235.238 193.304C234.197 189.592 230.351 188.087 230.312 188.073C230.019 187.961 229.872 187.633 229.983 187.341C230.094 187.048 230.422 186.9 230.714 187.011C230.894 187.079 235.132 188.724 236.331 192.998C236.416 193.3 236.24 193.613 235.937 193.698C235.887 193.712 235.836 193.719 235.785 193.719Z" fill="#EA5143"/>
<path d="M231.903 191.849C231.797 191.849 231.691 191.82 231.596 191.759C231.332 191.589 231.256 191.238 231.426 190.974C231.454 190.93 232.134 189.892 233.558 189.256C233.843 189.127 234.18 189.256 234.308 189.542C234.436 189.828 234.308 190.164 234.022 190.292C232.921 190.784 232.386 191.581 232.381 191.589C232.273 191.758 232.09 191.849 231.903 191.849Z" fill="#EA5143"/>
<path d="M245.769 207.632V219.588C245.769 219.588 249.335 225.677 254.156 226.091C258.973 226.511 263.254 220.849 263.254 220.849V208.472L245.769 207.632Z" fill="#FFA681"/>
<path d="M245.769 207.632V212.937C249.004 216.527 254.751 217.424 263.254 216.169V208.473L245.769 207.632Z" fill="#F97853"/>
<path d="M233.165 176.928C233.384 181.574 233.826 187.386 234.714 192.028V192.041C234.714 192.054 234.718 192.068 234.723 192.086C234.723 192.091 234.727 192.091 234.727 192.095C234.946 193.229 235.191 194.296 235.459 195.255C235.62 195.817 235.794 196.406 235.99 197.009C238.824 205.9 245.39 218.768 261.891 212.881C268.84 210.404 272.46 203.227 274.304 195.443C274.411 194.979 274.514 194.519 274.603 194.077C274.665 193.782 274.724 193.497 274.777 193.215L274.857 192.8C274.87 192.729 274.879 192.68 274.884 192.648C274.889 192.63 274.889 192.621 274.889 192.621C275.978 186.636 276.143 180.583 276.063 176.258C275.978 171.848 273.568 167.813 269.73 165.64C259.335 159.744 248.359 161.944 241.133 164.721C236.115 166.645 232.906 171.568 233.165 176.928Z" fill="#FFA681"/>
<path d="M234.709 192.028C234.709 192.028 234.709 192.032 234.713 192.041C234.713 192.054 234.717 192.068 234.722 192.086C234.722 192.091 234.726 192.091 234.726 192.095C234.833 192.483 235.413 194.612 235.989 197.009C238.823 205.9 245.389 218.768 261.89 212.881C268.839 210.404 272.459 203.227 274.303 195.443C274.41 194.979 274.513 194.519 274.602 194.077C274.664 193.782 274.723 193.497 274.776 193.215L274.856 192.8C274.869 192.729 274.878 192.68 274.883 192.648C274.888 192.63 274.888 192.621 274.888 192.621L272.46 192.13C271.996 194.429 270.969 196.593 269.71 198.517C267.657 193.598 257.239 196.866 257.239 196.866L257.19 196.884C256.556 197.08 255.905 197.183 255.248 197.183C254.574 197.183 253.904 197.076 253.253 196.866C253.253 196.866 242.96 193.456 240.827 198.147C238.694 194.844 237.247 191.849 237.247 191.849L234.712 192.028H234.709ZM255.223 199.094C267.002 197.505 265.15 203.847 265.15 203.847C263.842 205.039 262.646 205.909 261.843 206.36C259.272 207.793 256.741 208.337 254.907 208.248C253.099 208.172 252.604 208.543 248.033 206.07C247.225 205.637 246.408 204.994 245.609 204.231C245.609 204.231 245.609 204.231 245.605 204.231V204.227C245.408 202.986 243.413 197.063 255.223 199.094Z" fill="#31088E"/>
<path d="M244.55 185.574C244.55 186.85 245.208 187.885 246.019 187.885C246.83 187.885 247.488 186.85 247.488 185.574C247.488 184.298 246.83 183.263 246.019 183.263C245.207 183.263 244.55 184.298 244.55 185.574Z" fill="#31088E"/>
<path d="M262.916 185.574C262.916 186.85 263.574 187.885 264.385 187.885C265.197 187.885 265.854 186.85 265.854 185.574C265.854 184.298 265.196 183.263 264.385 183.263C263.574 183.263 262.916 184.298 262.916 185.574Z" fill="#31088E"/>
<path d="M240.788 177.782C240.788 177.782 246.859 175.383 251.533 177.402L251.066 180.002C251.066 180.002 244.205 179.422 240.749 180.822C240.439 179.822 240.393 178.81 240.788 177.782Z" fill="#31088E"/>
<path d="M269.654 177.794C269.654 177.794 263.538 175.377 258.83 177.411L259.301 180.03C259.301 180.03 266.212 179.445 269.694 180.857C270.006 179.849 270.051 178.83 269.654 177.794Z" fill="#31088E"/>
<path d="M254.659 195.902C253.701 195.902 252.75 195.529 252.603 195.469C252.313 195.351 252.175 195.019 252.293 194.729C252.411 194.439 252.742 194.299 253.032 194.417C253.545 194.625 254.777 194.952 255.31 194.632C255.413 194.57 255.555 194.448 255.59 194.103C255.795 192.119 255.252 185.471 255.247 185.404C255.221 185.091 255.454 184.817 255.767 184.791C256.081 184.765 256.353 184.998 256.379 185.31C256.402 185.588 256.937 192.131 256.721 194.219C256.64 195.005 256.226 195.407 255.894 195.606C255.531 195.826 255.094 195.902 254.659 195.902Z" fill="#F97853"/>
<path d="M261.9 200.229C261.469 202.399 260.035 206.39 255.207 206.39C250.367 206.39 249.01 202.743 248.544 200.229H261.9Z" fill="white"/>
<path d="M233.163 176.926C233.385 181.572 233.828 187.383 234.714 192.029L237.253 191.849C237.253 191.849 236.638 187.926 236.354 185.37C236.07 182.814 235.588 178.036 237.769 177.44C239.944 176.85 238.668 171.399 241.695 169.036C244.722 166.668 251.494 166.018 255.959 168.767C260.423 171.51 265.454 168.559 267.511 169.036C269.573 169.508 272.367 172.347 271.612 175C270.851 177.647 273.123 179.26 273.674 182.003C274.225 184.746 272.464 192.13 272.464 192.13L274.889 192.619C275.98 186.632 276.144 180.583 276.065 176.261C275.98 171.848 273.572 167.815 269.732 165.64C259.332 159.744 248.359 161.942 241.134 164.72C236.117 166.646 232.907 171.57 233.163 176.926Z" fill="#31088E"/>
<path d="M337.683 304.865C336.139 318.947 326.945 350.407 320.579 356.569C312.291 364.592 285.016 381.483 270.809 390.143C268.246 391.705 280.285 402.109 280.285 402.109C280.285 402.109 318.007 385.978 332.413 373.26C336.488 369.662 344.763 358.315 354.104 336.7C356.936 330.146 363.799 316.929 363.443 308.311C363.033 298.392 347.275 300.024 337.683 304.865Z" fill="#5359CD"/>
<path d="M308.248 385.756C308.248 385.756 297.988 389.652 294.352 393.938C290.716 398.224 285.911 401.86 287.079 403.548C288.248 405.236 293.572 400.301 293.572 400.301C293.572 400.301 295.032 405.726 300.195 406.311C305.359 406.896 315.13 396.794 315.13 396.794L308.248 385.756Z" fill="#FFA681"/>
<path d="M409.523 344.183C409.526 345.074 409.518 346.128 409.502 347.323C409.486 348.513 409.46 349.84 409.424 351.292C409.395 352.287 409.364 353.339 409.328 354.443C409.294 355.373 409.258 356.336 409.219 357.336C409.175 358.357 409.128 359.409 409.076 360.494C408.362 375.242 406.635 395.605 402.837 411.93H323.018C325.68 400.065 329.753 381.351 332.984 357.071C333.119 356.05 333.254 355.019 333.387 353.977C333.52 352.935 333.649 351.884 333.779 350.824C333.849 350.26 333.917 349.691 333.984 349.123C334.039 348.653 334.093 348.185 334.145 347.723C334.293 346.414 334.428 345.126 334.548 343.863C334.649 342.808 334.743 341.772 334.831 340.749C336.2 324.425 335.717 312.191 337.683 304.864C339.974 296.334 366.685 286.555 366.685 286.555L383.42 287.43C383.42 287.43 399.376 292.64 407.905 300.128C416.437 307.619 409.302 329.969 409.51 342.66C409.518 343.097 409.52 343.606 409.523 344.183Z" fill="#6D6BCE"/>
<path d="M409.502 347.323C402.245 348.204 394.674 348.552 387.245 348.552C362.916 348.552 340.077 344.833 334.547 343.864C334.648 342.809 334.742 341.773 334.83 340.75C341.256 341.888 378.442 348.038 409.522 344.184C409.525 345.074 409.518 346.128 409.502 347.323Z" fill="#E0D5F8"/>
<path d="M409.423 351.292C409.394 352.287 409.363 353.339 409.327 354.443C402.122 355.308 394.613 355.648 387.244 355.648C361.541 355.648 337.502 351.497 333.777 350.825C333.847 350.261 333.915 349.692 333.982 349.124C334.037 348.654 334.091 348.186 334.143 347.724C337.843 348.398 376.943 355.297 409.423 351.292Z" fill="#E0D5F8"/>
<path d="M409.218 357.336C409.174 358.357 409.127 359.409 409.075 360.494C401.579 361.447 393.73 361.819 386.034 361.819C361.149 361.819 337.827 357.931 332.983 357.071C333.118 356.05 333.253 355.019 333.386 353.977C339.146 355.004 377.559 361.479 409.218 357.336Z" fill="#E0D5F8"/>
<path d="M371.511 302.61C379.832 302.61 387.508 293.765 387.841 293.377C388.052 293.131 388.024 292.76 387.778 292.549C387.533 292.338 387.161 292.366 386.949 292.612C386.869 292.705 378.83 301.968 370.795 301.41C370.474 301.387 370.19 301.632 370.168 301.955C370.145 302.278 370.39 302.559 370.714 302.581C370.98 302.601 371.246 302.61 371.511 302.61Z" fill="#5359CD"/>
<path d="M378.726 402.077C379.02 402.077 379.274 401.856 379.308 401.557C379.345 401.235 379.114 400.944 378.792 400.906C357.298 398.432 348.394 361.226 348.306 360.851C348.233 360.535 347.917 360.339 347.601 360.412C347.285 360.486 347.089 360.801 347.162 361.117C347.527 362.683 356.349 399.505 378.657 402.073C378.681 402.076 378.704 402.077 378.726 402.077Z" fill="#5359CD"/>
<path d="M370.167 390.819C370.364 390.819 370.556 390.72 370.667 390.54C370.837 390.264 370.752 389.902 370.476 389.732C359.044 382.683 357.344 372.294 357.328 372.19C357.279 371.87 356.983 371.646 356.66 371.698C356.34 371.746 356.119 372.045 356.167 372.365C356.234 372.812 357.942 383.384 369.86 390.732C369.955 390.791 370.062 390.819 370.167 390.819Z" fill="#5359CD"/>
<path d="M376.841 271.427C389.846 271.427 400.388 260.885 400.388 247.88C400.388 234.875 389.846 224.333 376.841 224.333C363.836 224.333 353.294 234.875 353.294 247.88C353.294 260.885 363.836 271.427 376.841 271.427Z" fill="#31088E"/>
<path d="M353.679 243.658C353.679 243.658 347.011 241.817 347.89 235.345C348.638 229.837 355.109 233.408 354.54 229.103C353.971 224.798 352.707 220.884 358.276 219.808C363.147 218.867 363.229 222.205 369.626 217.362C377.183 211.641 382.988 224.889 389.733 225.287C399.681 225.874 400.936 231.5 401.915 236.001C402.893 240.502 399.064 243.658 399.064 243.658H353.679Z" fill="#31088E"/>
<path d="M357.251 254.469C357.251 254.469 353.521 249.496 350.748 253.608C347.975 257.72 351.896 269.866 358.686 266.901L357.251 254.469Z" fill="#F97853"/>
<path d="M357.202 263.148C356.951 263.148 356.721 262.982 356.65 262.729C355.597 258.979 351.713 257.459 351.674 257.444C351.378 257.331 351.229 257 351.342 256.704C351.454 256.408 351.785 256.259 352.081 256.371C352.263 256.44 356.544 258.101 357.756 262.419C357.841 262.724 357.664 263.041 357.358 263.127C357.305 263.141 357.253 263.148 357.202 263.148Z" fill="#EA5143"/>
<path d="M353.28 261.259C353.173 261.259 353.066 261.23 352.97 261.168C352.703 260.996 352.627 260.641 352.798 260.375C352.827 260.331 353.514 259.282 354.952 258.639C355.24 258.509 355.581 258.639 355.71 258.928C355.839 259.217 355.71 259.557 355.421 259.686C354.309 260.184 353.769 260.988 353.764 260.996C353.654 261.167 353.469 261.259 353.28 261.259Z" fill="#EA5143"/>
<path d="M384.303 277.204V289.283C384.303 289.283 379.337 294.606 374.466 295.025C369.6 295.449 366.639 289.668 366.639 289.668V278.053L384.303 277.204Z" fill="#FFA681"/>
<path d="M384.303 277.204V282.563C381.034 286.19 375.229 287.096 366.638 285.828V278.053L384.303 277.204Z" fill="#F97853"/>
<path d="M397.037 246.183C396.813 250.877 396.365 256.747 395.47 261.441C395.246 262.612 394.994 263.714 394.712 264.7C392.17 273.6 385.812 288.863 368.013 282.506C360.152 279.7 356.508 270.943 354.884 262.038C353.782 255.99 353.616 249.879 353.696 245.512C353.782 241.054 356.215 236.98 360.094 234.782C370.601 228.826 381.687 231.046 388.986 233.852C394.053 235.797 397.295 240.772 397.037 246.183Z" fill="#FFA681"/>
<path d="M375.683 254.714V255.667C375.683 257.586 376.431 259.387 377.793 260.739C379.134 262.073 380.907 262.804 382.792 262.804H383.024C384.659 262.769 386.145 262.111 387.448 260.847C388.754 259.572 389.503 257.75 389.503 255.841V254.715C389.503 254.403 389.444 254.105 389.337 253.828C389.212 253.492 389.018 253.194 388.769 252.945C388.315 252.491 387.692 252.211 386.999 252.211H378.189C377.192 252.211 376.332 252.793 375.93 253.638C375.781 253.946 375.694 254.289 375.687 254.649C375.683 254.669 375.683 254.694 375.683 254.714ZM376.722 254.714C376.722 253.904 377.38 253.249 378.187 253.249H386.997C387.808 253.249 388.463 253.904 388.463 254.714V255.84C388.463 257.468 387.829 259.024 386.72 260.101C385.615 261.175 384.364 261.733 383.003 261.764H382.791C381.184 261.764 379.67 261.14 378.523 260.001C377.363 258.847 376.722 257.309 376.722 255.667V254.714Z" fill="#31088E"/>
<path d="M358.042 254.714V255.667C358.042 257.586 358.794 259.387 360.152 260.739C361.493 262.073 363.266 262.804 365.151 262.804H365.386C367.018 262.769 368.507 262.111 369.807 260.847C371.113 259.572 371.865 257.75 371.865 255.841V254.715C371.865 254.698 371.865 254.684 371.861 254.667C371.857 254.328 371.781 254.002 371.65 253.707C371.262 252.824 370.382 252.211 369.36 252.211H360.547C359.775 252.211 359.082 252.564 358.621 253.115C358.399 253.385 358.23 253.701 358.139 254.043C358.073 254.257 358.042 254.482 358.042 254.714ZM359.082 254.714C359.082 253.904 359.74 253.249 360.547 253.249H369.36C370.167 253.249 370.825 253.904 370.825 254.714V255.84C370.825 257.468 370.188 259.024 369.083 260.101C367.978 261.175 366.727 261.733 365.366 261.764H365.151C363.543 261.764 362.03 261.14 360.886 260.001C359.722 258.847 359.081 257.309 359.081 255.667V254.714H359.082Z" fill="#31088E"/>
<path d="M395.78 251.79C392.788 251.661 390.651 252.524 389.806 252.945C389.57 253.059 388.94 253.469 388.913 253.486L389.408 254.368C389.415 254.364 390.104 253.953 390.374 253.828C391.203 253.441 393.043 252.665 395.78 252.826V251.79Z" fill="#31088E"/>
<path d="M376.38 254.753L376.721 253.771C376.66 253.75 375.201 253.248 373.598 253.248C371.892 253.248 370.794 253.772 370.747 253.794L371.201 254.729C371.209 254.725 372.146 254.287 373.598 254.287C375.02 254.288 376.367 254.749 376.38 254.753Z" fill="#31088E"/>
<path d="M354.403 252.04V253.082C356.555 253.26 358.543 254.221 358.572 254.233L359.029 253.301C358.912 253.242 356.778 252.213 354.403 252.04Z" fill="#31088E"/>
<path d="M366.198 256.046C366.198 257.335 365.534 258.381 364.714 258.381C363.894 258.381 363.23 257.336 363.23 256.046C363.23 254.757 363.895 253.711 364.714 253.711C365.533 253.711 366.198 254.756 366.198 256.046Z" fill="#31088E"/>
<path d="M383.578 256.046C383.578 257.335 382.913 258.381 382.094 258.381C381.274 258.381 380.61 257.336 380.61 256.046C380.61 254.757 381.275 253.711 382.094 253.711C382.914 253.711 383.578 254.756 383.578 256.046Z" fill="#31088E"/>
<path d="M359.886 248.876C359.886 248.876 366.064 246.434 370.821 248.49L370.424 250.698C370.424 250.698 365.272 249.548 360.227 251.429C359.912 250.411 359.484 249.923 359.886 248.876Z" fill="#31088E"/>
<path d="M388.159 248.876C388.159 248.876 381.981 246.434 377.223 248.49L377.62 250.698C377.62 250.698 382.772 249.548 387.817 251.429C388.132 250.411 388.561 249.923 388.159 248.876Z" fill="#31088E"/>
<path d="M374.315 265.83C375.283 265.83 376.243 265.453 376.392 265.393C376.685 265.273 376.825 264.939 376.706 264.645C376.587 264.352 376.251 264.211 375.958 264.33C375.44 264.54 374.196 264.87 373.656 264.547C373.552 264.484 373.41 264.361 373.374 264.013C373.167 262.009 373.715 255.293 373.721 255.225C373.747 254.909 373.512 254.632 373.197 254.606C372.88 254.579 372.604 254.815 372.578 255.131C372.555 255.412 372.015 262.022 372.233 264.131C372.315 264.925 372.732 265.331 373.067 265.532C373.435 265.752 373.876 265.83 374.315 265.83Z" fill="#F97853"/>
<path d="M367.202 268.743C367.671 271.102 369.229 275.443 374.481 275.443C379.745 275.443 381.221 271.476 381.728 268.743H367.202Z" fill="white"/>
<path d="M374.41 278.439C375.895 278.439 377.154 277.687 377.207 277.655C377.478 277.491 377.565 277.138 377.4 276.867C377.236 276.595 376.883 276.509 376.612 276.673C376.603 276.679 375.566 277.291 374.409 277.291C373.347 277.291 372.331 276.682 372.321 276.675C372.052 276.509 371.698 276.592 371.532 276.862C371.365 277.131 371.449 277.485 371.719 277.651C371.77 277.684 373.008 278.439 374.41 278.439Z" fill="#F97853"/>
<path d="M356.661 258.297C356.228 255.931 355.799 252.876 356.111 251.311C356.67 248.54 358.964 246.911 358.199 244.24C357.434 241.558 360.258 238.687 362.34 238.211C364.416 237.729 369.275 238.764 374.058 236.493C378.623 234.323 386.558 235.875 387.852 238.805C389.417 242.352 387.287 242.687 391.558 246.523C393.258 248.052 391.24 252.023 390.952 254.605C390.823 255.793 390.804 256.373 390.851 257.649L390.868 258.297H395.979C396.542 254.292 396.864 249.876 397.04 246.181C397.299 240.769 394.052 235.799 388.987 233.852C381.687 231.046 370.605 228.823 360.093 234.781C356.217 236.981 353.781 241.051 353.699 245.51C353.634 248.973 353.726 253.536 354.318 258.296H356.661V258.297Z" fill="#31088E"/>
<path d="M393.713 260.505C393.697 259.168 393.792 257.831 394.025 256.515C394.344 254.715 394.866 253.081 396.709 252.331C398.191 251.727 399.774 251.715 400.9 253.386C403.673 257.498 400.584 270.295 393.794 267.33L393.713 260.505Z" fill="#FFA681"/>
<path d="M395.107 263.604C395.353 263.555 395.546 263.347 395.567 263.085C395.865 259.202 399.377 256.951 399.412 256.928C399.68 256.759 399.761 256.405 399.593 256.137C399.425 255.869 399.071 255.787 398.803 255.955C398.638 256.058 394.765 258.525 394.422 262.997C394.398 263.313 394.634 263.589 394.951 263.613C395.004 263.617 395.057 263.613 395.107 263.604Z" fill="#F97853"/>
<path d="M398.582 260.983C398.687 260.962 398.786 260.912 398.868 260.833C399.096 260.613 399.101 260.249 398.881 260.022C398.844 259.984 397.965 259.09 396.429 258.741C396.122 258.67 395.813 258.864 395.743 259.173C395.672 259.482 395.866 259.789 396.175 259.86C397.363 260.13 398.05 260.814 398.057 260.82C398.198 260.966 398.397 261.02 398.582 260.983Z" fill="#F97853"/>
<path d="M404.51 297.509C396.124 310.22 364.028 354.166 356.786 359.271C347.359 365.917 321.66 375.367 306.905 385.219C301.892 388.567 313.736 398.04 313.736 398.04C313.736 398.04 349.702 387.929 365.9 377.589C370.482 374.664 389.54 355.573 401.691 338.64C405.854 332.839 412.625 324.782 413.605 316.213C414.732 306.35 411.634 301.073 404.51 297.509Z" fill="#5359CD"/>
<path d="M340.897 411.93H240.913C239.635 411.93 238.599 410.894 238.599 409.616V401.649C238.599 400.371 239.635 399.335 240.913 399.335H340.897C342.175 399.335 343.211 400.371 343.211 401.649V409.616C343.21 410.894 342.175 411.93 340.897 411.93Z" fill="#1A0B42"/>
<path d="M238.621 411.93L218.958 338.291C217.854 334.155 220.971 330.096 225.252 330.096H268.52C271.439 330.096 274.002 332.038 274.792 334.849L296.444 411.93H238.621Z" fill="#31088E"/>
<path d="M274.795 334.85L296.267 411.296H301.211L279.739 334.85C278.944 332.038 276.385 330.094 273.465 330.094H268.521C271.441 330.093 274 332.038 274.795 334.85Z" fill="#1A0B42"/>
<path d="M263.67 374.31C264.794 379.167 261.768 383.105 256.911 383.105C252.054 383.105 247.205 379.168 246.081 374.31C244.957 369.453 247.983 365.515 252.84 365.515C257.697 365.515 262.546 369.453 263.67 374.31Z" fill="#E0D5F8"/>
<path d="M397.747 140.706C394.106 140.706 391.144 137.744 391.144 134.103C391.144 130.462 394.106 127.5 397.747 127.5C401.388 127.5 404.35 130.462 404.35 134.103C404.35 137.744 401.388 140.706 397.747 140.706ZM397.747 129.57C395.248 129.57 393.215 131.603 393.215 134.102C393.215 136.601 395.248 138.634 397.747 138.634C400.246 138.634 402.279 136.601 402.279 134.102C402.278 131.603 400.245 129.57 397.747 129.57Z" fill="#5359CD"/>
<path d="M421.518 163.872C417.877 163.872 414.915 160.91 414.915 157.269C414.915 153.628 417.877 150.666 421.518 150.666C425.159 150.666 428.121 153.628 428.121 157.269C428.121 160.91 425.159 163.872 421.518 163.872ZM421.518 152.737C419.019 152.737 416.986 154.77 416.986 157.269C416.986 159.768 419.019 161.801 421.518 161.801C424.017 161.801 426.05 159.768 426.05 157.269C426.05 154.77 424.017 152.737 421.518 152.737Z" fill="#6D6BCE"/>
<path d="M429.677 185.33C429.105 185.33 428.641 184.866 428.641 184.294V179.726C428.641 179.154 429.105 178.69 429.677 178.69C430.249 178.69 430.713 179.154 430.713 179.726V184.294C430.712 184.866 430.249 185.33 429.677 185.33Z" fill="#5359CD"/>
<path d="M429.677 193.323C429.105 193.323 428.641 192.859 428.641 192.287V187.719C428.641 187.147 429.105 186.683 429.677 186.683C430.249 186.683 430.713 187.147 430.713 187.719V192.287C430.712 192.86 430.249 193.323 429.677 193.323Z" fill="#5359CD"/>
<path d="M436.087 187.043H431.984C431.412 187.043 430.948 186.579 430.948 186.007C430.948 185.435 431.412 184.971 431.984 184.971H436.087C436.659 184.971 437.123 185.435 437.123 186.007C437.123 186.579 436.659 187.043 436.087 187.043Z" fill="#5359CD"/>
<path d="M427.368 187.043H423.265C422.693 187.043 422.229 186.579 422.229 186.007C422.229 185.435 422.693 184.971 423.265 184.971H427.368C427.94 184.971 428.404 185.435 428.404 186.007C428.404 186.579 427.94 187.043 427.368 187.043Z" fill="#5359CD"/>
<path d="M393.215 159.734C392.643 159.734 392.179 159.27 392.179 158.698V154.13C392.179 153.558 392.643 153.094 393.215 153.094C393.787 153.094 394.251 153.558 394.251 154.13V158.698C394.251 159.27 393.787 159.734 393.215 159.734Z" fill="#260EAB"/>
<path d="M393.215 167.728C392.643 167.728 392.179 167.264 392.179 166.692V162.124C392.179 161.552 392.643 161.088 393.215 161.088C393.787 161.088 394.251 161.552 394.251 162.124V166.692C394.251 167.264 393.787 167.728 393.215 167.728Z" fill="#260EAB"/>
<path d="M399.626 161.447H395.523C394.951 161.447 394.487 160.983 394.487 160.411C394.487 159.839 394.951 159.375 395.523 159.375H399.626C400.198 159.375 400.662 159.839 400.662 160.411C400.661 160.983 400.198 161.447 399.626 161.447Z" fill="#260EAB"/>
<path d="M390.907 161.447H386.804C386.232 161.447 385.768 160.983 385.768 160.411C385.768 159.839 386.232 159.375 386.804 159.375H390.907C391.479 159.375 391.943 159.839 391.943 160.411C391.942 160.983 391.479 161.447 390.907 161.447Z" fill="#260EAB"/>
<path d="M91.2959 110.388C91.2959 106.747 94.2579 103.785 97.8989 103.785C101.54 103.785 104.502 106.747 104.502 110.388C104.502 114.029 101.54 116.991 97.8989 116.991C94.2579 116.992 91.2959 114.029 91.2959 110.388ZM93.3679 110.388C93.3679 112.887 95.4009 114.92 97.8999 114.92C100.399 114.92 102.432 112.887 102.432 110.388C102.432 107.889 100.399 105.856 97.8999 105.856C95.4009 105.856 93.3679 107.889 93.3679 110.388Z" fill="#5359CD"/>
<path d="M64.7778 135.558C64.7778 131.917 67.7398 128.954 71.3808 128.954C75.0218 128.954 77.9838 131.916 77.9838 135.558C77.9838 139.2 75.0218 142.161 71.3808 142.161C67.7398 142.161 64.7778 139.199 64.7778 135.558ZM66.8488 135.558C66.8488 138.057 68.8818 140.09 71.3808 140.09C73.8798 140.09 75.9128 138.057 75.9128 135.558C75.9128 133.059 73.8798 131.026 71.3808 131.026C68.8818 131.026 66.8488 133.059 66.8488 135.558Z" fill="#6D6BCE"/>
<path d="M51.0492 144.824C51.6212 144.824 52.0852 144.36 52.0852 143.788V139.22C52.0852 138.648 51.6212 138.184 51.0492 138.184C50.4772 138.184 50.0132 138.648 50.0132 139.22V143.788C50.0132 144.36 50.4772 144.824 51.0492 144.824Z" fill="#5359CD"/>
<path d="M51.0492 152.818C51.6212 152.818 52.0852 152.354 52.0852 151.782V147.214C52.0852 146.642 51.6212 146.178 51.0492 146.178C50.4772 146.178 50.0132 146.642 50.0132 147.214V151.782C50.0132 152.354 50.4772 152.818 51.0492 152.818Z" fill="#5359CD"/>
<path d="M44.6381 146.537H48.7411C49.3131 146.537 49.7771 146.073 49.7771 145.501C49.7771 144.929 49.3131 144.465 48.7411 144.465H44.6381C44.0661 144.465 43.6021 144.929 43.6021 145.501C43.6021 146.073 44.0661 146.537 44.6381 146.537Z" fill="#5359CD"/>
<path d="M53.3583 146.537H57.4613C58.0333 146.537 58.4973 146.073 58.4973 145.501C58.4973 144.929 58.0333 144.465 57.4613 144.465H53.3583C52.7863 144.465 52.3223 144.929 52.3223 145.501C52.3223 146.073 52.7863 146.537 53.3583 146.537Z" fill="#5359CD"/>
<path d="M74.9164 109.711C75.4884 109.711 75.9524 109.247 75.9524 108.675V104.107C75.9524 103.535 75.4884 103.071 74.9164 103.071C74.3444 103.071 73.8804 103.535 73.8804 104.107V108.675C73.8814 109.247 74.3454 109.711 74.9164 109.711Z" fill="#260EAB"/>
<path d="M74.9164 117.705C75.4884 117.705 75.9524 117.241 75.9524 116.669V112.101C75.9524 111.529 75.4884 111.065 74.9164 111.065C74.3444 111.065 73.8804 111.529 73.8804 112.101V116.669C73.8814 117.241 74.3454 117.705 74.9164 117.705Z" fill="#260EAB"/>
<path d="M68.5052 111.424H72.6082C73.1802 111.424 73.6442 110.96 73.6442 110.388C73.6442 109.816 73.1802 109.352 72.6082 109.352H68.5052C67.9332 109.352 67.4692 109.816 67.4692 110.388C67.4692 110.96 67.9332 111.424 68.5052 111.424Z" fill="#260EAB"/>
<path d="M77.2254 111.424H81.3285C81.9005 111.424 82.3644 110.96 82.3644 110.388C82.3644 109.816 81.9005 109.352 81.3285 109.352H77.2254C76.6534 109.352 76.1895 109.816 76.1895 110.388C76.1895 110.96 76.6534 111.424 77.2254 111.424Z" fill="#260EAB"/>
<path d="M346.03 117.399V137.506C346.03 140.164 343.874 142.32 341.216 142.32H304.707L293.685 146.274C292.553 146.681 291.47 145.568 291.904 144.448L296.073 133.681V117.398C296.073 114.74 298.229 112.584 300.889 112.584H341.215C343.873 112.584 346.03 114.741 346.03 117.399Z" fill="#6D6BCE"/>
<g opacity="0.5">
<path d="M338.333 123.087H304.84C304.106 123.087 303.511 122.492 303.511 121.758C303.511 121.024 304.106 120.43 304.84 120.43H338.333C339.067 120.43 339.662 121.025 339.662 121.758C339.662 122.493 339.067 123.087 338.333 123.087Z" fill="#E0D5F8"/>
<path d="M338.333 128.438H304.84C304.106 128.438 303.511 127.843 303.511 127.109C303.511 126.375 304.106 125.781 304.84 125.781H338.333C339.067 125.781 339.662 126.376 339.662 127.109C339.662 127.843 339.067 128.438 338.333 128.438Z" fill="#E0D5F8"/>
<path d="M338.333 133.788H304.84C304.106 133.788 303.511 133.193 303.511 132.46C303.511 131.726 304.106 131.131 304.84 131.131H338.333C339.067 131.131 339.662 131.726 339.662 132.46C339.662 133.193 339.067 133.788 338.333 133.788Z" fill="#E0D5F8"/>
</g>
<path d="M453.721 419.45V420.169C453.721 424.314 450.36 427.675 446.212 427.675H56.7785C52.6315 427.675 49.2725 424.314 49.2725 420.169V419.45C49.2725 415.305 52.6315 411.944 56.7785 411.944H446.212C450.36 411.944 453.721 415.305 453.721 419.45Z" fill="#260EAB"/>
<path d="M453.721 419.45V419.809H49.2725V419.45C49.2725 415.305 52.6315 411.944 56.7785 411.944H446.212C450.36 411.944 453.721 415.305 453.721 419.45Z" fill="#5359CD"/>
</g>
<defs>
<clipPath id="clip0_1424_1547">
<rect width="500" height="500" fill="white"/>
</clipPath>
</defs>
</svg>
