<svg width="2524" height="2000" viewBox="0 0 2524 2000" fill="none" xmlns="http://www.w3.org/2000/svg">
<g clip-path="url(#clip0_1424_2006)">
<path d="M2523.07 0H-0.00195312V2000H2523.07V0Z" fill="white"/>
<path d="M1773.06 872.047L422.741 92.4402C390.988 74.1072 351.297 97.0232 351.297 133.688V1692.9C351.297 1729.57 390.988 1752.48 422.741 1734.15L1773.06 954.544C1804.81 936.211 1804.81 890.38 1773.06 872.047Z" fill="url(#paint0_linear_1424_2006)"/>
<path d="M464.954 704.424C470.605 717.994 478.09 730.502 487.049 741.704L473.909 769.258L500.437 789.156L526.965 809.055L549.74 788.73C563.001 794.196 577.104 797.879 591.714 799.507L601.898 828.258L634.727 823.57L667.557 818.882L669.288 788.43C682.858 782.779 695.366 775.294 706.568 766.335L734.121 779.475L754.02 752.947L773.919 726.419L753.593 703.645C759.059 690.383 762.743 676.28 764.371 661.67L793.122 651.486L788.434 618.657L783.746 585.828L753.294 584.097C747.642 570.528 740.158 558.019 731.199 546.817L744.339 519.264L717.811 499.365L691.283 479.467L668.508 499.792C655.247 494.326 641.144 490.642 626.534 489.014L616.35 460.263L583.52 464.952L550.691 469.64L548.96 500.091C535.39 505.743 522.882 513.227 511.68 522.186L484.126 509.047L464.227 535.574L444.328 562.102L464.653 584.877C459.188 598.139 455.503 612.241 453.875 626.851L425.125 637.036L429.813 669.865L434.501 702.693L464.954 704.424ZM592.7 529.227C656.232 520.156 715.088 564.304 724.159 627.836C733.23 691.367 689.082 750.224 625.55 759.295C562.018 768.366 503.162 724.218 494.09 660.687C485.02 597.154 529.168 538.299 592.7 529.227Z" fill="white"/>
<path d="M458.697 381.704C461.288 387.926 464.719 393.66 468.826 398.795L462.802 411.427L474.964 420.55L487.126 429.673L497.567 420.355C503.647 422.861 510.112 424.549 516.81 425.296L521.479 438.476L536.529 436.328L551.579 434.179L552.373 420.219C558.594 417.627 564.329 414.197 569.464 410.09L582.096 416.113L591.219 403.951L600.341 391.789L591.022 381.349C593.528 375.269 595.217 368.804 595.964 362.106L609.144 357.437L606.996 342.387L604.847 327.336L590.887 326.543C588.296 320.321 584.865 314.587 580.758 309.452L586.781 296.82L574.619 287.697L562.457 278.575L552.016 287.892C545.936 285.387 539.471 283.698 532.773 282.952L528.104 269.771L513.054 271.919L498.003 274.068L497.21 288.028C490.988 290.62 485.254 294.051 480.119 298.158L467.488 292.134L458.365 304.296L449.242 316.458L458.56 326.898C456.054 332.978 454.365 339.444 453.619 346.141L440.439 350.81L442.588 365.86L444.737 380.911L458.697 381.704ZM517.261 301.387C546.387 297.228 573.369 317.468 577.528 346.593C581.687 375.719 561.447 402.701 532.322 406.86C503.196 411.019 476.214 390.78 472.055 361.654C467.896 332.527 488.135 305.545 517.261 301.387Z" fill="white"/>
<path d="M1481.82 769.515C1481.82 769.515 1563.04 743.122 1569.64 746.068C1576.24 749.014 1577.13 753.669 1569.62 756.465C1562.11 759.26 1491.74 784.323 1491.74 784.323C1491.74 784.323 1592.1 769.858 1598.07 771.001C1601.56 771.67 1603.8 780.548 1599.89 782.43C1595.99 784.313 1497.02 804.605 1497.02 804.605C1497.02 804.605 1590.75 791.276 1595.4 793.813C1599.46 796.033 1599.55 804.821 1592.64 806.309C1585.74 807.797 1499.18 825.316 1499.18 825.316C1499.18 825.316 1567.77 820.106 1570.39 824.753C1571.99 827.595 1574.27 835.156 1556.56 835.92C1538.84 836.684 1497.03 843.099 1497.03 843.099L1481.82 769.515Z" fill="#EEA886"/>
<path d="M1392.32 815.005C1392.32 815.005 1418.6 804.558 1420.49 787.972C1422.09 773.869 1433.8 756.381 1437.39 750.99C1442.2 743.78 1449.37 716.245 1457.8 722.116C1466.22 727.986 1448.02 768.005 1445.76 777.121C1443.5 786.237 1479.38 766.808 1488.35 768.565C1497.33 770.321 1521.77 833.237 1495.81 843.64C1469.86 854.044 1436.4 847.432 1432.14 850.2C1427.88 852.966 1413.51 858.542 1413.51 858.542L1392.32 815.005Z" fill="#EEA886"/>
<path d="M1075.48 1286.53C1076.07 1294.14 1076.7 1301.37 1077.29 1307.84H701.173C701.309 1301.51 701.49 1294.32 701.626 1286.53C702.893 1223.83 704.748 1121.03 703.933 1082.21C702.892 1026.79 691.22 882.776 688.912 874.451C688.912 874.451 606.387 754.554 519.835 991.225C501.963 1040 665.792 1162.2 645.433 1165.96C625.119 1169.67 625.933 1208.35 625.933 1208.35C625.933 1208.35 471.651 1073.98 474.818 1034.39C476.583 1012.4 597.384 692.885 615.844 679.674C628.422 670.625 707.418 638.954 748.363 623.436C767.321 616.197 781.753 611.175 784.74 610.994C794.105 610.406 909.659 621.491 909.659 621.491C909.659 621.491 926.218 627.147 943.185 634.929C972.096 648.185 1017.16 668.952 1049.46 684.335C1059.91 689.312 1072.99 696.009 1083.85 701.755C1082.54 741.027 1080.18 783.148 1076.88 828.166C1076.88 828.166 1070.86 926.481 1070.32 1025.79C1065.12 1048.28 1066.02 1100.54 1066.02 1100.54C1064.58 1150.08 1070.09 1200.93 1071.54 1229.35C1072.45 1247.13 1073.94 1267.94 1075.48 1286.53Z" fill="#DBD8E3"/>
<path d="M1091.72 1286.53C1086.29 1251.38 1081.13 1214.78 1076.88 1179.76V1179.49C1076.2 1173.79 1075.52 1168.13 1074.84 1162.52C1074.84 1162.25 1074.8 1161.93 1074.75 1161.66C1072.04 1137.95 1069.82 1115.29 1068.19 1094.52C1066.97 1078.59 1068.06 1063.07 1070.28 1047.83C1076.7 941.639 1079.91 829.659 1079.91 829.659C1083.31 783.782 1085.25 740.981 1086.56 701.031C1086.56 701.031 941.466 632.486 928.3 628.55C928.3 628.55 955.808 693.158 976.44 837.623C984.403 893.092 999.107 986.477 1009.78 1081.81C1013.99 1119.4 1020.91 1157.45 1027.52 1193.29C1033.76 1227.08 1039.74 1258.94 1042.95 1286.54C1043.17 1288.21 1043.36 1289.88 1043.54 1291.56C1044.03 1296.31 1044.62 1301.78 1045.3 1307.84H1095.07C1093.94 1300.83 1092.81 1293.68 1091.72 1286.53Z" fill="#323657"/>
<path d="M836.137 1117.59C829.531 1181.66 822.292 1233.51 816.455 1286.53C815.685 1293.59 814.917 1300.69 814.193 1307.84H661.585C663.576 1300.79 665.52 1293.68 667.376 1286.53C683.754 1224.78 696.83 1161.75 696.83 1123.52C696.83 1123.52 665.069 895.127 654.436 858.343C654.436 858.343 558.383 929.376 535.942 978.557C515.854 1022.53 663.033 1156.86 661.314 1161.39C651.315 1187.86 612.993 1236.22 612.993 1236.22C612.993 1236.22 385.098 991.452 388.129 961.274C390.301 939.331 581.367 695.374 599.781 682.163C610.459 674.517 689.364 646.556 728.094 631.264C735.198 628.459 758.272 619.772 764.606 617.374C772.795 626.513 830.527 688.633 850.525 924.718C853.917 964.531 843.285 1048.78 836.137 1117.59Z" fill="#323657"/>
<path d="M795.404 623.28C795.404 623.28 794.611 583.61 779.322 503.356C775.233 481.873 904.043 559.883 904.043 559.883C904.043 559.883 903.646 567.407 903.387 577.57C903.249 582.937 903.163 589.028 903.198 595.136C903.215 597.293 903.233 599.433 903.284 601.555C903.405 607.233 903.663 612.668 904.146 617.291C904.629 622.055 907.442 630.458 908.443 632.77C913.758 645.023 838.784 654.323 795.404 623.28Z" fill="#EEA987"/>
<path d="M875.803 664.845L897.156 693.533C897.156 693.533 884.646 710.285 862.43 697.918L875.803 664.845Z" fill="#D44040"/>
<path d="M891.444 694.697C891.444 694.697 972.425 1006.48 955.733 1249.18L928.487 1297.2L902.984 1246.89C902.984 1246.89 895.998 812.777 873.794 693.932L891.444 694.697Z" fill="#D44040"/>
<path d="M898.667 638.099L875.804 664.845C875.804 664.845 839.113 657.737 828.34 638.572C817.566 619.405 898.667 638.099 898.667 638.099Z" fill="#EEA987"/>
<path d="M903.91 614.69C903.91 614.69 901.255 635.079 875.803 664.844L903.584 702.167L918.619 624.742L903.91 614.69Z" fill="#C4C1CC"/>
<path d="M793.292 595.293C793.292 595.293 838.705 650.178 875.804 664.845L858.549 707.52L772.205 614.691L793.292 595.293Z" fill="#C4C1CC"/>
<path d="M1460.57 859.532C1460.57 859.532 1264.85 1072.16 1218.67 1060.8C1197.31 1055.55 1164.97 1018.69 1138.25 984.041C1129.44 972.63 1120.8 960.653 1112.58 948.801C1112.55 948.777 1112.56 948.751 1112.56 948.751C1079.77 901.413 1054.07 856.037 1054.07 856.037C1054.07 856.037 957.164 742.463 1034.93 691.836C1034.93 691.836 1067.7 688.528 1086.35 702.28C1103.56 714.977 1145.44 794.93 1152.24 809.754C1159.03 824.552 1211.92 929.053 1216.85 932.145C1221.79 935.238 1273.73 904.061 1301.49 885.374C1346.35 855.177 1402.72 802.548 1402.72 802.548L1460.57 859.532Z" fill="#323657"/>
<path d="M971.872 362.4C971.872 362.4 1000.17 414.866 986.145 423.024C974.556 429.765 999.723 481.252 1003.02 489.665C1006.31 498.077 982.023 504.188 976.867 509.603C971.711 515.017 956.417 581.637 936.417 583.646C916.417 585.654 826.295 554.313 801.755 528.798C777.215 503.282 757.08 388.034 773.46 339.421C789.838 290.809 921.927 270.751 971.872 362.4Z" fill="#EEA886"/>
<path d="M977.519 373.77C977.519 373.77 1006.41 317.11 953.936 275.077C901.466 233.045 804.713 306.814 793.809 309.628C782.905 312.441 721.034 316.691 752.274 425.325C779.099 518.608 782.847 522.533 782.847 522.533C782.847 522.533 802.867 468.493 814.212 460.257C831.93 447.394 870.777 450.484 870.777 450.484C870.777 450.484 852.267 401.341 881.194 394.382C910.12 387.423 948.253 362.905 977.519 373.77Z" fill="#16202E"/>
<path d="M839.96 422.342C837.409 415.602 829.16 386.631 804.301 403.644C779.441 420.657 819.79 475.259 824.124 475.963C828.458 476.668 861.43 479.065 839.96 422.342Z" fill="#EEA886"/>
<path d="M903.198 595.137C903.215 597.294 903.233 599.434 903.284 601.556C829.603 576.829 815.334 539.61 815.334 539.61C838.317 555.865 903.387 577.571 903.387 577.571C903.25 582.938 903.163 589.028 903.198 595.137Z" fill="#A77860"/>
<path d="M634.725 1160.59C634.725 1160.59 641.698 1166.44 649.085 1166.38C661.841 1166.27 676.364 1152.4 689.697 1165C703.03 1177.59 674.961 1231.15 664.851 1237.43C654.742 1243.71 631.763 1232.43 607.173 1202.71C582.582 1172.99 634.725 1160.59 634.725 1160.59Z" fill="#EEA886"/>
<path d="M684.595 1161.41C684.595 1161.41 710.396 1170.28 737.895 1183.69C762.019 1195.46 790.325 1213.44 787.438 1219.55C783.055 1228.82 761.536 1211.43 736.831 1201.38C714.086 1192.13 717.011 1197.81 717.011 1197.81C717.011 1197.81 716.267 1196.15 739.082 1211.1C763.611 1227.18 789.287 1245.48 787.017 1250.53C784.204 1256.79 783.326 1257.33 773.463 1252.97C778.59 1256.71 778.29 1258.66 776.928 1260.97C769.884 1272.94 730.147 1254.99 714.369 1247.86C726.456 1253.42 734.727 1258.8 725.685 1263.34C715.341 1268.53 660.311 1240.59 639.636 1232.5C617.083 1223.68 684.595 1161.41 684.595 1161.41Z" fill="#EEA886"/>
<path d="M661.319 1161.41C661.319 1161.41 655.712 1194.24 613.005 1236.23C613.005 1236.23 515.118 1128.24 497.655 1108.03L574.248 1063.59L661.319 1161.41Z" fill="#323657"/>
<path d="M1787.73 1286.53H440.947V1307.84H1787.73V1286.53Z" fill="white"/>
<path d="M1096.93 514.785H1150.09C1159.75 514.785 1167.59 506.948 1167.59 497.282V444.125C1167.59 434.458 1159.75 426.622 1150.09 426.622H1096.93C1087.26 426.622 1079.43 434.458 1079.43 444.125V497.282C1079.42 506.948 1087.26 514.785 1096.93 514.785Z" fill="#975CFD"/>
<g opacity="0.69">
<path opacity="0.72" d="M1496.52 337.235H1209.67C1204.64 337.235 1200.56 333.16 1200.56 328.132V318.957C1200.56 313.93 1204.64 309.853 1209.67 309.853H1496.52C1501.55 309.853 1505.62 313.929 1505.62 318.957V328.132C1505.62 333.16 1501.55 337.235 1496.52 337.235Z" fill="#D9D9D9"/>
<path opacity="0.72" d="M1539.05 381.504H1209.67C1204.64 381.504 1200.56 377.429 1200.56 372.401V363.225C1200.56 358.198 1204.64 354.122 1209.67 354.122H1539.05C1544.08 354.122 1548.16 358.197 1548.16 363.225V372.401C1548.15 377.429 1544.08 381.504 1539.05 381.504Z" fill="#D9D9D9"/>
</g>
<path d="M1096.93 389.761H1150.09C1159.75 389.761 1167.59 381.925 1167.59 372.258V319.101C1167.59 309.435 1159.75 301.598 1150.09 301.598H1096.93C1087.26 301.598 1079.43 309.435 1079.43 319.101V372.258C1079.42 381.925 1087.26 389.761 1096.93 389.761Z" fill="#975CFD"/>
<g opacity="0.69">
<path opacity="0.72" d="M1421.96 462.26H1208.46C1204.1 462.26 1200.56 458.727 1200.56 454.368V442.77C1200.56 438.412 1204.1 434.878 1208.46 434.878H1421.96C1426.32 434.878 1429.85 438.411 1429.85 442.77V454.368C1429.85 458.727 1426.32 462.26 1421.96 462.26Z" fill="#D9D9D9"/>
<path opacity="0.72" d="M1474.39 506.528H1208.77C1204.24 506.528 1200.56 502.856 1200.56 498.328V487.347C1200.56 482.819 1204.24 479.148 1208.77 479.148H1474.39C1478.92 479.148 1482.59 482.819 1482.59 487.347V498.328C1482.59 502.856 1478.92 506.528 1474.39 506.528Z" fill="#D9D9D9"/>
</g>
<g opacity="0.69">
<path opacity="0.72" d="M1523.73 587.284H1210.07C1204.82 587.284 1200.56 583.028 1200.56 577.778V569.409C1200.56 564.159 1204.82 559.903 1210.07 559.903H1523.73C1528.98 559.903 1533.23 564.159 1533.23 569.409V577.778C1533.23 583.028 1528.98 587.284 1523.73 587.284Z" fill="#D9D9D9"/>
<path opacity="0.72" d="M1497.1 631.552H1209.09C1204.38 631.552 1200.56 627.735 1200.56 623.025V612.7C1200.56 607.99 1204.38 604.172 1209.09 604.172H1497.1C1501.81 604.172 1505.62 607.99 1505.62 612.7V623.025C1505.62 627.734 1501.81 631.552 1497.1 631.552Z" fill="#D9D9D9"/>
</g>
<path d="M1096.93 639.809H1150.09C1159.75 639.809 1167.59 631.973 1167.59 622.307V569.149C1167.59 559.483 1159.75 551.647 1150.09 551.647H1096.93C1087.26 551.647 1079.43 559.483 1079.43 569.149V622.307C1079.42 631.973 1087.26 639.809 1096.93 639.809Z" fill="#975CFD"/>
<path d="M1120.5 492.011L1096.03 470.754C1094.03 469.011 1093.81 465.971 1095.56 463.966C1097.3 461.959 1100.34 461.746 1102.34 463.489L1119.64 478.52L1144.23 451.002C1146.01 449.02 1149.05 448.849 1151.03 450.62C1153.01 452.391 1153.18 455.433 1151.41 457.415L1120.5 492.011Z" fill="white"/>
<path d="M1120.5 617.035L1096.03 595.778C1094.03 594.035 1093.81 590.995 1095.56 588.989C1097.3 586.983 1100.34 586.77 1102.34 588.512L1119.64 603.544L1144.23 576.026C1146.01 574.043 1149.05 573.873 1151.03 575.644C1153.01 577.415 1153.18 580.457 1151.41 582.438L1120.5 617.035Z" fill="white"/>
<path d="M1121.87 356.429L1121.72 354.49C1121.28 350.462 1122.62 346.061 1126.35 341.587C1129.7 337.634 1131.57 334.725 1131.57 331.368C1131.57 327.564 1129.18 325.028 1124.48 324.954C1121.8 324.954 1118.82 325.85 1116.95 327.267L1115.16 322.568C1117.62 320.778 1121.87 319.585 1125.83 319.585C1134.4 319.585 1138.28 324.881 1138.28 330.549C1138.28 335.621 1135.45 339.276 1131.87 343.527C1128.59 347.405 1127.39 350.687 1127.62 354.491L1127.69 356.43H1121.87V356.429ZM1120.23 366.871C1120.23 364.111 1122.1 362.172 1124.71 362.172C1127.32 362.172 1129.11 364.111 1129.11 366.871C1129.11 369.481 1127.39 371.495 1124.63 371.495C1122.02 371.495 1120.23 369.481 1120.23 366.871Z" fill="white"/>
<path d="M1720.54 1138.04H1773.7C1783.37 1138.04 1791.2 1130.2 1791.2 1120.53V1067.38C1791.2 1057.71 1783.37 1049.87 1773.7 1049.87H1720.54C1710.88 1049.87 1703.04 1057.71 1703.04 1067.38V1120.53C1703.04 1130.2 1710.88 1138.04 1720.54 1138.04Z" fill="#975CFD"/>
<g opacity="0.69">
<path opacity="0.72" d="M2120.13 960.487H1833.28C1828.25 960.487 1824.18 956.412 1824.18 951.385V942.209C1824.18 937.183 1828.25 933.106 1833.28 933.106H2120.13C2125.16 933.106 2129.24 937.182 2129.24 942.209V951.385C2129.24 956.412 2125.16 960.487 2120.13 960.487Z" fill="#D9D9D9"/>
<path opacity="0.72" d="M2162.67 1004.76H1833.28C1828.25 1004.76 1824.18 1000.68 1824.18 995.654V986.477C1824.18 981.45 1828.25 977.375 1833.28 977.375H2162.67C2167.69 977.375 2171.77 981.45 2171.77 986.477V995.654C2171.77 1000.68 2167.69 1004.76 2162.67 1004.76Z" fill="#D9D9D9"/>
</g>
<path d="M1720.54 1013.01H1773.7C1783.37 1013.01 1791.2 1005.18 1791.2 995.51V942.353C1791.2 932.687 1783.37 924.85 1773.7 924.85H1720.54C1710.88 924.85 1703.04 932.687 1703.04 942.353V995.51C1703.04 1005.18 1710.88 1013.01 1720.54 1013.01Z" fill="#975CFD"/>
<g opacity="0.69">
<path opacity="0.72" d="M2045.57 1085.51H1832.07C1827.71 1085.51 1824.18 1081.98 1824.18 1077.62V1066.02C1824.18 1061.66 1827.71 1058.13 1832.07 1058.13H2045.57C2049.93 1058.13 2053.47 1061.66 2053.47 1066.02V1077.62C2053.47 1081.98 2049.93 1085.51 2045.57 1085.51Z" fill="#D9D9D9"/>
<path opacity="0.72" d="M2098 1129.78H1832.38C1827.85 1129.78 1824.18 1126.11 1824.18 1121.58V1110.6C1824.18 1106.07 1827.85 1102.4 1832.38 1102.4H2098C2102.53 1102.4 2106.2 1106.07 2106.2 1110.6V1121.58C2106.2 1126.11 2102.53 1129.78 2098 1129.78Z" fill="#D9D9D9"/>
</g>
<path d="M1744.11 1115.26L1719.65 1094.01C1717.64 1092.26 1717.43 1089.22 1719.17 1087.22C1720.91 1085.21 1723.95 1085 1725.96 1086.74L1743.26 1101.77L1767.85 1074.25C1769.62 1072.27 1772.66 1072.1 1774.64 1073.87C1776.63 1075.64 1776.8 1078.68 1775.03 1080.67L1744.11 1115.26Z" fill="white"/>
<path d="M1424.68 1503.86C1428.74 1521.51 1428.04 1562.52 1428.04 1562.52C1429.15 1601.41 1424.81 1641.36 1423.7 1663.66C1423.67 1664.35 1423.63 1665.04 1423.6 1665.74C1423.31 1671.01 1422.97 1676.59 1422.58 1682.25H1713.56C1713.46 1676.89 1713.35 1671.37 1713.26 1665.74C1712.68 1632.82 1712.16 1596.75 1712.11 1571C1778.61 1553.44 1850.42 1530.52 1849.07 1513.76C1847.7 1496.51 1795.89 1242.54 1781.41 1232.17C1771.53 1225.08 1709.52 1200.23 1677.36 1188.03C1662.49 1182.36 1651.15 1178.41 1648.83 1178.27C1641.47 1177.81 1550.76 1186.5 1550.76 1186.5C1550.76 1186.5 1537.75 1190.96 1524.46 1197.06C1501.77 1207.47 1466.4 1223.75 1441.01 1235.84C1432.81 1239.73 1422.57 1245.01 1414.04 1249.53C1415.07 1280.35 1416.9 1313.39 1419.51 1348.73C1419.51 1348.73 1424.23 1425.91 1424.68 1503.86ZM1712.98 1533.24C1716.56 1484.89 1731.14 1401.83 1732.76 1395.95C1732.8 1395.95 1739.59 1402.42 1739.64 1402.42C1739.64 1402.4 1741.88 1402.74 1741.91 1402.71C1741.94 1402.62 1743.98 1403.49 1743.98 1403.49C1743.98 1403.49 1788.01 1464.99 1788.48 1498.05C1788.72 1513.82 1754.33 1525.12 1712.98 1533.24Z" fill="#DBD8E3"/>
<path d="M1411.78 1682.25H1449.9C1450.77 1676.88 1451.71 1671.37 1452.7 1665.75C1459.16 1629.35 1467.66 1588.22 1472.19 1547.84V1547.83C1480.57 1473.01 1492.1 1399.7 1498.33 1356.15C1514.53 1242.77 1536.13 1192.04 1536.13 1192.04C1525.81 1195.12 1411.91 1248.95 1411.91 1248.95C1412.93 1280.29 1414.46 1313.92 1417.12 1349.9C1417.12 1349.9 1419.63 1437.81 1424.69 1521.18C1426.41 1533.12 1427.28 1545.33 1426.32 1557.82C1425.05 1574.13 1423.28 1591.93 1421.16 1610.5C1421.13 1610.75 1421.11 1610.99 1421.08 1611.2C1420.58 1615.61 1420.04 1620.04 1419.51 1624.53C1419.51 1624.6 1419.48 1624.65 1419.48 1624.72C1417.85 1638.2 1416.04 1651.97 1414.13 1665.74C1413.37 1671.25 1412.59 1676.76 1411.78 1682.25Z" fill="#323657"/>
<path d="M1520.8 1556.82C1529.46 1577.25 1559.31 1627.71 1559.31 1627.71C1559.31 1627.71 1580.91 1622.42 1612.68 1614.19C1614.78 1632.22 1616.89 1649.18 1618.91 1665.75C1619.58 1671.28 1620.26 1676.77 1620.9 1682.25H1734.25C1732.91 1676.7 1731.62 1671.19 1730.41 1665.75C1723.48 1635.05 1718.62 1606.49 1717.92 1585.65C1793.93 1563.94 1868.43 1539.61 1867.28 1527.97C1865.56 1510.75 1808.47 1244.5 1793.99 1234.13C1785.64 1228.14 1723.68 1206.17 1693.28 1194.19C1687.72 1191.99 1668.76 1184.87 1663.77 1182.97C1657.33 1190.15 1612.88 1239.21 1597.17 1424.54C1595.22 1447.59 1599.26 1489.66 1603.75 1531.82C1557.73 1544.1 1519.31 1553.33 1520.8 1556.82ZM1728.07 1490.68C1732.65 1453.76 1737.84 1416.61 1741.6 1403.61C1741.6 1403.61 1754.42 1429.47 1753.42 1467.41C1753.22 1475.07 1743.47 1482.93 1728.07 1490.68Z" fill="#323657"/>
<path d="M1653.59 1181.17C1653.59 1181.17 1642.05 1159.38 1645.24 1097.49C1646.12 1080.34 1555.18 1138.15 1555.18 1138.15C1555.18 1138.15 1555.49 1144.06 1555.68 1152.03C1555.79 1155.35 1555.85 1158.99 1555.85 1162.73C1555.85 1163.76 1555.83 1164.79 1555.83 1165.82C1555.82 1167.52 1555.8 1169.19 1555.77 1170.87C1555.73 1172.95 1555.65 1174.98 1555.55 1176.94C1555.44 1179.17 1555.29 1181.28 1555.08 1183.21C1554.71 1186.95 1552.51 1193.55 1551.72 1195.36C1547.55 1204.98 1619.54 1205.53 1653.59 1181.17Z" fill="#EEA987"/>
<path d="M1577.34 1220.54L1560.58 1243.06C1560.58 1243.06 1570.4 1256.21 1587.84 1246.5L1577.34 1220.54Z" fill="#E8734D"/>
<path d="M1565.06 1243.97C1565.06 1243.97 1503.66 1393.95 1516.76 1584.46L1536.13 1619.61L1557.96 1589.67C1557.96 1589.67 1561.49 1336.66 1578.92 1243.37L1565.06 1243.97Z" fill="#E8734D"/>
<path d="M1559.39 1199.54L1577.34 1220.54C1577.34 1220.54 1606.14 1214.96 1614.6 1199.91C1623.06 1184.87 1559.39 1199.54 1559.39 1199.54Z" fill="#EEA987"/>
<path d="M1555.28 1181.17C1555.28 1181.17 1557.36 1197.17 1577.34 1220.54L1555.53 1249.83L1543.73 1189.06L1555.28 1181.17Z" fill="#C4C1CC"/>
<path d="M1648.11 1161.92C1648.11 1161.92 1606.46 1209.02 1577.34 1220.54L1590.89 1254.04L1657.35 1180.72L1648.11 1161.92Z" fill="#C4C1CC"/>
<path d="M1219.99 1588.08C1219.99 1588.08 1275.26 1534.47 1311.52 1525.55C1328.28 1521.43 1350.35 1498.29 1371.33 1471.09C1378.25 1462.14 1385.03 1452.74 1391.48 1443.43C1391.5 1443.41 1391.5 1443.39 1391.5 1443.39C1417.24 1406.24 1437.41 1370.62 1437.41 1370.62C1437.41 1370.62 1513.48 1281.47 1452.43 1241.72C1452.43 1241.72 1426.27 1241.16 1411.92 1248.95C1397.16 1256.96 1365.69 1322.65 1360.35 1334.29C1355.02 1345.9 1297.21 1453.95 1293.33 1456.37C1289.46 1458.8 1283.01 1467.69 1259.88 1480.14C1231.56 1495.39 1187.07 1540.02 1187.07 1540.02L1219.99 1588.08Z" fill="#323657"/>
<path d="M1485.33 1650.13C1485.33 1650.13 1493.05 1649.82 1496.36 1648.03C1496.36 1648.03 1502.13 1644.33 1506.4 1641.94C1507.76 1641.19 1508.95 1640.56 1509.77 1640.24C1513.18 1638.89 1521.06 1636.94 1528.34 1631.39C1535.61 1625.85 1559.3 1603.68 1559.3 1603.68L1543.99 1580.14L1536.92 1556.82C1536.92 1556.82 1481.67 1562.32 1474.3 1566.7C1473.58 1567.13 1472.89 1567.58 1472.27 1568.06C1466.39 1572.37 1463.83 1578.05 1461 1580.66C1459.97 1581.63 1450.34 1591.93 1450.88 1596.11C1451.62 1601.91 1454.49 1605.63 1458.08 1607.39C1458.08 1607.39 1460.03 1618.68 1465.87 1623.73C1465.87 1623.73 1467.33 1634.2 1476.38 1638.41C1476.38 1638.41 1479.06 1648.87 1485.33 1650.13Z" fill="#EFAA88"/>
<path d="M1573.3 937.809C1573.3 937.809 1473.44 913.738 1494.47 1040.17C1515.51 1166.6 1539.46 1176.86 1600.29 1151.65C1661.12 1126.44 1656.89 1045.58 1660.52 1006.01C1664.14 966.438 1605.24 939.654 1573.3 937.809Z" fill="#EEA886"/>
<path d="M1625.76 1025.37C1627.25 1014.26 1649.29 1010.51 1650.82 1027.21C1652.35 1043.92 1640.15 1073.01 1631.85 1070.01C1623.55 1067.01 1623.72 1040.68 1625.76 1025.37Z" fill="#EEA886"/>
<path d="M1654.69 1070.64C1654.69 1070.64 1652.69 1030.87 1638.19 1029.42C1623.7 1027.97 1621.23 1043.93 1621.23 1043.93L1606.54 1046.48C1606.54 1046.48 1611.68 1011.73 1597.28 1005.44C1582.88 999.138 1503.12 1023.23 1491.64 1012.84C1480.16 1002.45 1486.67 931.891 1507.85 922.533C1529.02 913.177 1587.43 892.368 1629.57 921.802C1629.57 921.802 1662.8 918.506 1667.33 945.353C1671.86 972.198 1664 1050.86 1654.69 1070.64Z" fill="#16202E"/>
<path d="M1518.07 1556.82L1559.3 1627.71C1559.3 1627.71 1668.53 1599.57 1694.02 1592.38L1635.76 1523.04C1635.76 1523.04 1549.86 1542.66 1518.07 1556.82Z" fill="#323657"/>
<path d="M1555.55 1176.94H1555.57C1609.12 1171.48 1629.89 1130.25 1629.89 1130.25C1596.2 1163.64 1555.85 1162.73 1555.85 1162.73C1555.85 1163.76 1555.83 1164.79 1555.83 1165.82C1555.82 1167.51 1555.8 1169.19 1555.77 1170.87C1555.73 1172.94 1555.65 1174.98 1555.55 1176.94Z" fill="#A77860"/>
<path d="M1477.45 1401.62L1506.58 1672.45H1123.17L1094.04 1401.62H1477.45Z" fill="#FFC955"/>
<path d="M1537.09 1648.08H1473.05V1672.45H1537.09V1648.08Z" fill="#FFC955"/>
<path d="M1805.21 1671.89H763.123V1688.39H1805.21V1671.89Z" fill="url(#paint1_linear_1424_2006)"/>
<path d="M1321.6 1532.68C1324.68 1547.76 1317.65 1561.94 1305.89 1564.34C1294.13 1566.74 1282.1 1556.46 1279.02 1541.38C1275.94 1526.31 1282.97 1512.13 1294.73 1509.73C1306.49 1507.33 1318.52 1517.6 1321.6 1532.68Z" fill="#CFA345"/>
<path d="M853.872 1429.16H508.843C492.264 1429.16 478.824 1415.72 478.824 1399.14V1067.53C478.824 1050.96 492.264 1037.51 508.843 1037.51H853.872C870.451 1037.51 883.891 1050.95 883.891 1067.53V1399.14C883.891 1415.72 870.451 1429.16 853.872 1429.16Z" fill="#E0E0E0"/>
<path d="M516.376 1384.01L513.568 1381.04L586.188 1312.52L659.685 1328.44L729.888 1248.38L791.115 1251.84L838.8 1186.06L842.113 1188.46L793.116 1256.05L731.648 1252.58L661.172 1332.95L587.428 1316.97L516.376 1384.01Z" fill="#377B93"/>
<path d="M671.092 1328.39C672.367 1334.28 668.627 1340.08 662.738 1341.36C656.849 1342.63 651.042 1338.89 649.766 1333C648.491 1327.12 652.231 1321.31 658.12 1320.03C664.009 1318.76 669.816 1322.5 671.092 1328.39Z" fill="#E6E6E6"/>
<path d="M663.17 1343.36C656.188 1344.87 649.278 1340.42 647.766 1333.44C646.254 1326.45 650.704 1319.54 657.686 1318.03C664.668 1316.52 671.579 1320.97 673.09 1327.95C674.602 1334.94 670.152 1341.85 663.17 1343.36ZM658.553 1322.03C653.776 1323.06 650.731 1327.79 651.765 1332.57C652.799 1337.35 657.527 1340.39 662.305 1339.36C667.082 1338.32 670.127 1333.6 669.093 1328.82C668.058 1324.04 663.33 1321 658.553 1322.03Z" fill="#377B93"/>
<path d="M741.41 1248.86C742.685 1254.75 738.945 1260.56 733.056 1261.83C727.167 1263.11 721.359 1259.37 720.084 1253.48C718.809 1247.59 722.549 1241.78 728.438 1240.51C734.327 1239.23 740.135 1242.97 741.41 1248.86Z" fill="#E6E6E6"/>
<path d="M733.488 1263.83C726.506 1265.34 719.596 1260.89 718.084 1253.91C716.572 1246.93 721.022 1240.02 728.004 1238.51C734.986 1237 741.897 1241.45 743.408 1248.43C744.921 1255.41 740.471 1262.32 733.488 1263.83ZM728.871 1242.51C724.094 1243.54 721.049 1248.27 722.083 1253.05C723.118 1257.82 727.846 1260.87 732.623 1259.83C737.4 1258.8 740.445 1254.07 739.411 1249.29C738.376 1244.52 733.648 1241.47 728.871 1242.51Z" fill="#377B93"/>
<path d="M802.188 1251.29C803.463 1257.18 799.723 1262.99 793.835 1264.27C787.946 1265.54 782.138 1261.8 780.863 1255.91C779.588 1250.02 783.328 1244.22 789.217 1242.94C795.106 1241.67 800.914 1245.41 802.188 1251.29Z" fill="#E6E6E6"/>
<path d="M794.268 1266.27C787.286 1267.78 780.376 1263.33 778.864 1256.35C777.352 1249.36 781.802 1242.45 788.784 1240.94C795.766 1239.43 802.676 1243.88 804.187 1250.86C805.7 1257.84 801.25 1264.75 794.268 1266.27ZM789.65 1244.94C784.873 1245.97 781.828 1250.7 782.862 1255.48C783.896 1260.26 788.624 1263.3 793.402 1262.27C798.179 1261.23 801.224 1256.5 800.19 1251.73C799.155 1246.95 794.427 1243.91 789.65 1244.94Z" fill="#377B93"/>
<path d="M597.412 1313.44C598.687 1319.33 594.947 1325.14 589.058 1326.42C583.169 1327.69 577.361 1323.95 576.086 1318.06C574.811 1312.17 578.551 1306.37 584.44 1305.09C590.33 1303.81 596.137 1307.55 597.412 1313.44Z" fill="#E6E6E6"/>
<path d="M589.491 1328.41C582.509 1329.93 575.598 1325.48 574.087 1318.49C572.575 1311.51 577.025 1304.6 584.008 1303.09C590.99 1301.58 597.9 1306.03 599.412 1313.01C600.923 1319.99 596.473 1326.9 589.491 1328.41ZM584.873 1307.09C580.096 1308.12 577.051 1312.85 578.085 1317.63C579.12 1322.4 583.848 1325.45 588.625 1324.41C593.402 1323.38 596.447 1318.65 595.413 1313.88C594.379 1309.1 589.65 1306.05 584.873 1307.09Z" fill="#377B93"/>
<path d="M620.501 1356.31H575.837V1364.91H620.501V1356.31Z" fill="white"/>
<path d="M651.563 1268.04H606.899V1276.65H651.563V1268.04Z" fill="white"/>
<path d="M744.214 1329.55H699.55V1338.15H744.214V1329.55Z" fill="white"/>
<path d="M784.276 1208.76H739.612V1217.36H784.276V1208.76Z" fill="white"/>
<path d="M849.147 1280.73H804.483V1289.34H849.147V1280.73Z" fill="white"/>
<path d="M667.691 1067.45H508.624V1083.06H667.691V1067.45Z" fill="#4E8C63"/>
<path d="M667.691 1109.45H508.624V1125.06H667.691V1109.45Z" fill="white"/>
<path d="M667.691 1151.45H508.624V1167.07H667.691V1151.45Z" fill="white"/>
<path d="M726.708 1067.45H700.156V1083.06H726.708V1067.45Z" fill="#4E8C63"/>
<path d="M726.708 1109.45H700.156V1125.06H726.708V1109.45Z" fill="white"/>
<path d="M726.708 1151.45H700.156V1167.07H726.708V1151.45Z" fill="white"/>
<path d="M1146.97 1276.02C1146.97 1276.02 1126.09 1228.72 1150.31 1232.64C1150.31 1232.64 1158.56 1239.45 1167.02 1253.34C1173.43 1263.86 1186.76 1291.7 1186.27 1301.11C1185.77 1310.53 1179.08 1317.55 1171.84 1332.67C1171.84 1332.67 1156.81 1360.74 1156.18 1364.12L1140.28 1355.87C1140.28 1355.87 1153.75 1329.04 1163.24 1305.44L1146.97 1276.02Z" fill="#DBD8E3"/>
<path d="M1278.47 1363.5L958.558 1309.02L949.294 1363.4L1269.21 1417.89L1278.47 1363.5Z" fill="#E8734D"/>
<path d="M957.476 1315.55L940.388 1312.64L933.357 1353.93L950.445 1356.84L957.476 1315.55Z" fill="#2D3038"/>
<path d="M1026.11 1676.77H1022.17C1022.17 1676.77 1023.48 1661.89 1019.83 1661.74C1016.19 1661.59 1007.14 1673.85 1001.74 1675.75C996.349 1677.64 968.635 1679.24 968.488 1674.14C968.342 1669.04 979.135 1666.99 982.49 1665.54C985.845 1664.08 1002.18 1648.18 1005.1 1646.28C1008.02 1644.38 1013 1631.2 1013 1631.2L1028.47 1630.51C1028.47 1630.51 1029.34 1642.83 1030.28 1649.36C1030.63 1651.77 1030.88 1653.97 1030.92 1655.47C1031.06 1661.01 1026.11 1676.77 1026.11 1676.77Z" fill="#EEA886"/>
<path d="M1125.78 1673.82H1122.49V1659.97C1119.76 1660.2 1110.57 1668.9 1107.72 1671.42C1104.88 1673.93 1100.98 1673.82 1089 1674.58C1077.02 1675.35 1075.89 1668.17 1077.78 1665.73C1079.68 1663.29 1085.81 1662.22 1089 1660.7C1092.19 1659.17 1104.77 1644.98 1108.13 1641.63C1111.48 1638.27 1113.52 1628.66 1113.52 1628.66L1127.53 1629.88C1127.53 1629.88 1127.44 1638.67 1129.03 1646.05V1646.05C1129.04 1646.07 1129.04 1646.09 1129.05 1646.11C1129.18 1646.74 1129.33 1647.35 1129.5 1647.96C1131.58 1655.63 1125.78 1673.82 1125.78 1673.82Z" fill="#EEA886"/>
<path d="M1074 1359.91C1074 1359.91 1068.71 1372.43 1068.24 1375.59C1067.77 1378.75 1055.38 1408.69 1051.8 1428.89C1049.65 1440.97 1043.73 1478.81 1043.25 1483.62C1042.43 1491.85 1038.55 1510.03 1037.96 1518.44C1037.63 1523.14 1014.47 1595.3 1008.87 1632.97C1008.87 1632.97 1022.18 1634.95 1032.18 1632.3C1032.18 1632.3 1052.51 1593.36 1063.8 1538.13C1070.6 1504.87 1076.61 1487.14 1081.87 1473.44C1087.14 1459.74 1116.97 1420.94 1120.08 1416.58C1123.19 1412.22 1142.7 1388.13 1124.23 1362.03C1105.76 1335.94 1074 1359.91 1074 1359.91Z" fill="#323657"/>
<path d="M1140.68 1470.76C1138.99 1481.99 1140.76 1496.75 1144.29 1537.84C1147.83 1578.91 1138.12 1628.65 1138.12 1628.65C1125.92 1632.83 1111.88 1628.65 1111.88 1628.65C1112.2 1625.77 1111.88 1528.53 1111.88 1519.86C1111.88 1511.2 1109.39 1501.36 1108.75 1491.42C1108.31 1484.64 1105.16 1472.14 1101.61 1459.38C1100.55 1455.56 1099.45 1451.72 1098.38 1448V1447.99C1097.78 1445.91 1097.19 1443.86 1096.62 1441.88C1091.62 1424.55 1084.9 1357.63 1084.9 1357.63C1084.9 1357.63 1122.15 1327.63 1140.28 1355.87C1158.42 1384.11 1149.11 1404.65 1148.47 1408.18C1147.83 1411.71 1142.37 1459.53 1140.68 1470.76Z" fill="#323657"/>
<path d="M1125.23 1410.41C1124.95 1411.05 1106.39 1452.24 1101.61 1459.38C1100.55 1455.56 1099.45 1451.72 1098.38 1448V1447.99C1098.38 1447.99 1124.61 1411.31 1125.23 1410.41Z" fill="#131521"/>
<path d="M1125.78 1673.82H1122.49V1659.97C1119.76 1660.2 1110.57 1668.9 1107.72 1671.42C1104.88 1673.93 1100.98 1673.82 1089 1674.58C1077.02 1675.35 1075.89 1668.17 1077.78 1665.73C1079.68 1663.29 1085.81 1662.22 1089 1660.7C1101.81 1661.38 1117.45 1643.37 1124.96 1643.4C1128.95 1643.42 1128.91 1645.63 1129.03 1646.05V1646.05C1129.04 1646.07 1129.04 1646.09 1129.05 1646.11C1129.18 1646.74 1129.33 1647.35 1129.5 1647.96C1131.58 1655.63 1125.78 1673.82 1125.78 1673.82Z" fill="#C6C9CC"/>
<path d="M1026.11 1676.77H1022.17C1022.17 1676.77 1023.48 1661.89 1019.83 1661.74C1016.19 1661.59 1007.14 1673.85 1001.74 1675.75C996.349 1677.64 968.635 1679.24 968.488 1674.14C968.342 1669.04 979.135 1666.99 982.49 1665.54C993.921 1665.51 1012.51 1652.93 1018.28 1650.38C1024.04 1647.83 1030.28 1649.36 1030.28 1649.36C1030.63 1651.77 1030.88 1653.97 1030.92 1655.47C1031.06 1661.01 1026.11 1676.77 1026.11 1676.77Z" fill="#C6C9CC"/>
<path d="M1106.88 1202.82C1106.88 1202.82 1112.83 1218.54 1108.2 1230.69C1108.2 1230.69 1129.99 1229.28 1130.82 1226.73C1131.64 1224.19 1129.94 1200.63 1132.94 1193.67C1135.94 1186.71 1106.88 1202.82 1106.88 1202.82Z" fill="#EEA886"/>
<path d="M1104.78 1225.38C1104.78 1225.38 1091.9 1229.96 1086.08 1231.23C1080.26 1232.5 1068.09 1238.27 1069.08 1259.98C1070.07 1281.69 1073.7 1300.51 1075.02 1309.84C1076.34 1319.17 1075.52 1342.92 1073.37 1354.45C1073.37 1354.45 1104.24 1362.25 1140.56 1354.45C1140.56 1354.45 1134.12 1334.77 1134.29 1329.69C1134.45 1324.6 1155.75 1282.7 1156.74 1276.09C1157.73 1269.47 1162.02 1240.3 1152.28 1233.86C1142.54 1227.41 1134.62 1228.26 1130.49 1225.38C1126.36 1222.49 1110.8 1223.31 1104.78 1225.38Z" fill="#DBD8E3"/>
<path d="M1154.46 1388.56C1101.72 1402.56 1059.75 1388.62 1059.75 1388.62C1063.58 1380.75 1066.39 1372.9 1068.43 1365.3L1068.44 1365.3C1069.88 1359.93 1070.93 1354.69 1071.68 1349.65V1349.65C1075.97 1320.92 1070.38 1298.91 1070.38 1298.91C1076.47 1248.81 1152.28 1233.86 1158.35 1249.74C1164.43 1265.62 1146.59 1333.88 1145.68 1339.73C1144.78 1345.58 1154.46 1388.56 1154.46 1388.56Z" fill="#DBD8E3"/>
<path d="M1125.88 1139.73C1117.12 1136.73 1093.44 1133.53 1087.37 1169.88C1081.3 1206.22 1094.52 1206.85 1108.09 1205.81C1121.66 1204.78 1142.89 1180.25 1144.52 1172.79C1146.15 1165.33 1150.87 1148.31 1125.88 1139.73Z" fill="#EEA886"/>
<path d="M1092.25 1153.69C1092.25 1153.69 1099.48 1169.17 1108.97 1174.56C1108.97 1174.56 1114.91 1191 1127.79 1197.65C1127.79 1197.65 1161.94 1175.02 1142.12 1148.14C1122.3 1121.25 1094.49 1142.66 1092.25 1153.69Z" fill="#16202E"/>
<path d="M1108.13 1169.2C1108.9 1167.3 1114.02 1164.23 1116.31 1169.42C1118.61 1174.61 1110.37 1183.74 1108.11 1183.25C1105.85 1182.76 1105.22 1176.37 1108.13 1169.2Z" fill="#EEA886"/>
<path d="M1140.97 1152.29C1141.71 1151.13 1164.33 1140.66 1169.04 1162.54C1173.74 1184.42 1150.82 1209.86 1146.8 1220.8C1142.79 1231.74 1148.62 1257.38 1148.62 1257.38C1148.62 1257.38 1134.83 1244.34 1130.65 1230.69C1126.07 1215.71 1124.53 1177.92 1140.97 1152.29Z" fill="#16202E"/>
<path d="M1142.11 1151.55C1142.11 1151.55 1135.18 1157.02 1134.29 1165.67C1134.29 1165.67 1132.99 1158.93 1135.78 1154.81C1138.58 1150.69 1142.11 1151.55 1142.11 1151.55Z" fill="#E54242"/>
<path d="M1068.43 1365.3C1069.88 1359.93 1070.93 1354.69 1071.68 1349.65L1072.32 1344.83C1072.32 1344.83 1075.16 1342.26 1076.33 1338.72C1077.51 1335.19 1086.24 1291.75 1086.24 1291.75C1086.24 1291.75 1095.47 1332.55 1068.43 1365.3Z" fill="#1D3B54"/>
<path d="M1029.61 1367.82C1029.61 1367.82 1022.81 1374.57 1020.61 1375.25C1018.41 1375.93 1014.17 1372.19 998.552 1371.03C997.181 1370.93 994.77 1372.16 995.338 1373.97C995.905 1375.78 1002.7 1380.71 1005.61 1381.46C1008.52 1382.22 1022.24 1387.67 1028.93 1384.99C1035.62 1382.32 1040.17 1373.8 1040.17 1373.8L1029.61 1367.82Z" fill="#EEA886"/>
<path d="M1082.44 1232.42C1082.44 1232.42 1064.38 1239.58 1063.31 1264.68C1062.24 1289.78 1061.26 1302.89 1060.28 1306.76C1059.3 1310.63 1057.42 1326.21 1052.88 1335.58C1048.47 1344.67 1019.53 1373.44 1019.53 1373.44L1033.53 1386.61C1033.53 1386.61 1073.88 1346.13 1076.33 1338.72C1078.78 1331.32 1088.87 1279.81 1089.67 1271.12C1090.32 1264.13 1099.55 1232.94 1082.44 1232.42Z" fill="#DBD8E3"/>
<path d="M912.229 1299.23C912.2 1300.09 912.14 1300.95 912.081 1301.81H945.11C945.17 1300.95 945.2 1300.09 945.228 1299.23H912.229ZM543.841 1290.11C543.841 1291.11 543.841 1292.09 543.871 1293.1C543.93 1297.27 544.107 1301.42 544.462 1305.54C545.321 1317.27 547.217 1328.73 550.061 1339.84C559.096 1375.39 577.64 1407.15 602.82 1432.21C603.798 1433.21 604.775 1434.16 605.753 1435.11C609.692 1438.9 613.81 1442.54 618.075 1445.98C652.616 1474.09 696.664 1490.92 744.653 1490.92C745.453 1490.92 746.253 1490.92 747.052 1490.89C783.459 1490.47 817.555 1480.34 846.851 1462.98C860.151 1455.11 872.445 1445.74 883.554 1435.11C906.689 1412.92 924.551 1385.25 935.008 1354.18C936.578 1349.47 938 1344.7 939.244 1339.84C941.436 1331.19 943.095 1322.31 944.132 1313.27V1313.24C944.34 1311.32 944.547 1309.39 944.695 1307.44C944.873 1305.57 945.022 1303.7 945.11 1301.81C945.17 1300.95 945.199 1300.09 945.227 1299.23C945.316 1297.33 945.376 1295.47 945.406 1293.57C945.435 1292.42 945.435 1291.26 945.435 1290.11C945.435 1189.6 871.586 1106.33 775.163 1091.63C773.296 1091.34 771.431 1091.07 769.535 1090.83C767.461 1090.6 765.387 1090.36 763.314 1090.18C761.447 1090 759.552 1089.86 757.686 1089.74C753.361 1089.44 749.007 1089.32 744.652 1089.32C740.949 1089.32 737.276 1089.41 733.632 1089.62C727.382 1089.95 721.22 1090.6 715.118 1091.49C656.909 1100.05 606.818 1133.61 576.128 1180.92C569.996 1190.34 564.634 1200.32 560.131 1210.78C559.835 1211.43 559.568 1212.11 559.302 1212.76C559.006 1213.38 558.768 1214.03 558.531 1214.66C556.992 1218.36 555.599 1222.12 554.325 1225.91C551.008 1235.75 548.43 1245.94 546.682 1256.4C546.179 1259.15 545.794 1261.93 545.409 1264.75C545.379 1265.22 545.32 1265.7 545.261 1266.2C545.232 1266.23 545.232 1266.26 545.232 1266.32C545.202 1266.56 545.173 1266.79 545.173 1267.03C545.113 1267.3 545.084 1267.56 545.054 1267.86V1268.07C545.024 1268.19 544.994 1268.33 544.994 1268.48C544.965 1268.69 544.934 1268.9 544.934 1269.1C544.875 1269.61 544.816 1270.11 544.786 1270.61C544.491 1273.7 544.253 1276.81 544.105 1279.92C544.075 1280.33 544.045 1280.78 544.045 1281.19C544.016 1281.87 543.986 1282.55 543.956 1283.23C543.871 1285.52 543.841 1287.8 543.841 1290.11ZM588.838 1352.58L588.068 1350.63C587.505 1349.17 586.972 1347.72 586.439 1346.24L585.225 1342.69C584.929 1341.8 584.632 1340.91 584.366 1340.02C584.336 1339.96 584.336 1339.9 584.307 1339.84C584.248 1339.66 584.188 1339.52 584.159 1339.34C583.685 1337.86 583.27 1336.35 582.856 1334.84L582.382 1333.09C581.937 1331.49 581.552 1329.86 581.167 1328.23C581.137 1328.08 581.078 1327.9 581.048 1327.73C580.723 1326.22 580.397 1324.71 580.101 1323.19C579.953 1322.57 579.834 1321.95 579.715 1321.33C579.36 1319.43 579.034 1317.51 578.737 1315.58C578.204 1312.21 577.819 1308.8 577.493 1305.36C577.375 1304.21 577.286 1303.02 577.197 1301.84C577.197 1301.84 577.226 1301.84 577.197 1301.81C577.197 1301.42 577.167 1301.07 577.138 1300.68C577.049 1299.08 576.96 1297.48 576.901 1295.88V1295.41C576.872 1295.05 576.872 1294.67 576.872 1294.28C576.842 1292.89 576.812 1291.5 576.812 1290.11C576.812 1288.8 576.812 1287.5 576.872 1286.23C576.961 1281.01 577.316 1275.89 577.938 1270.82C577.967 1270.29 578.027 1269.76 578.116 1269.22C578.116 1269.19 578.116 1269.16 578.145 1269.13C578.116 1269.1 578.145 1269.1 578.145 1269.1C578.116 1269.07 578.116 1269.04 578.145 1269.01C578.145 1268.9 578.145 1268.78 578.175 1268.69C578.175 1268.66 578.175 1268.63 578.175 1268.63C578.175 1268.57 578.175 1268.54 578.204 1268.51C581.404 1243.48 590.142 1220.2 603.118 1199.87C618.285 1176.15 639.257 1156.48 664.022 1142.91C670.568 1139.3 677.382 1136.13 684.403 1133.43C686.625 1132.57 688.905 1131.74 691.187 1131C703.894 1126.71 717.313 1123.92 731.206 1122.85C735.649 1122.47 740.123 1122.29 744.655 1122.29C746.018 1122.29 747.351 1122.29 748.714 1122.35C750.284 1122.38 751.824 1122.44 753.395 1122.5C754.521 1122.56 755.646 1122.65 756.772 1122.74C757.098 1122.74 757.394 1122.76 757.69 1122.8C759.556 1122.91 761.452 1123.09 763.318 1123.3C763.792 1123.36 764.266 1123.42 764.74 1123.48C765.481 1123.57 766.251 1123.66 766.992 1123.77C767.851 1123.86 768.68 1123.98 769.54 1124.13C771.436 1124.4 773.301 1124.72 775.168 1125.05C775.346 1125.08 775.523 1125.11 775.672 1125.14C777.123 1125.4 778.575 1125.7 780.026 1126.02C780.116 1126.05 780.204 1126.05 780.293 1126.08C780.885 1126.2 781.507 1126.35 782.101 1126.5C783.463 1126.8 784.796 1127.12 786.129 1127.48C786.722 1127.6 787.314 1127.74 787.876 1127.92C789.417 1128.34 790.957 1128.75 792.498 1129.22C793.979 1129.64 795.431 1130.11 796.882 1130.59C797.563 1130.79 798.244 1131.03 798.896 1131.27C801.799 1132.25 804.672 1133.31 807.486 1134.47C808.257 1134.76 809.026 1135.09 809.796 1135.42C810.982 1135.92 812.136 1136.42 813.321 1136.96C814.269 1137.37 815.217 1137.79 816.136 1138.26C817.528 1138.88 818.89 1139.56 820.253 1140.24C821.793 1141.01 823.304 1141.81 824.785 1142.64C826.503 1143.56 828.162 1144.51 829.821 1145.49C833.258 1147.5 836.575 1149.63 839.834 1151.89C841.226 1152.83 842.588 1153.81 843.951 1154.85C845.669 1156.06 847.328 1157.34 848.957 1158.64C850.409 1159.79 851.86 1160.98 853.282 1162.19C854.763 1163.44 856.186 1164.68 857.608 1165.99C891.318 1196.67 912.469 1240.93 912.469 1290.11C912.469 1291.26 912.469 1292.42 912.44 1293.57C912.41 1295.47 912.351 1297.33 912.232 1299.23C912.203 1300.09 912.143 1300.95 912.084 1301.81C911.936 1303.7 911.788 1305.57 911.581 1307.43C911.047 1312.77 910.248 1318.01 909.211 1323.19C908.085 1328.85 906.663 1334.42 904.975 1339.84C903.641 1344.17 902.131 1348.43 900.443 1352.58C889.186 1380.69 870.524 1405.04 846.855 1423.23C841.226 1427.55 835.332 1431.52 829.2 1435.11C805.028 1449.24 777.005 1457.5 747.056 1457.92C746.256 1457.95 745.456 1457.95 744.657 1457.95C713.82 1457.95 684.908 1449.62 660.085 1435.11C633.187 1419.41 611.059 1396.42 596.396 1368.84C595.655 1367.42 594.915 1366 594.203 1364.58L592.899 1361.85C592.367 1360.78 591.893 1359.72 591.389 1358.62L590.915 1357.55C590.5 1356.61 590.085 1355.66 589.7 1354.68L588.838 1352.58Z" fill="#323657"/>
<path opacity="0.1" d="M862.884 1408.36C928.192 1343.05 928.192 1237.17 862.884 1171.86C797.576 1106.55 691.69 1106.55 626.381 1171.86C561.073 1237.17 561.073 1343.05 626.382 1408.36C691.69 1473.67 797.576 1473.67 862.884 1408.36Z" fill="#B8B8B8"/>
<path opacity="0.3" d="M857.592 1165.98C857.592 1165.98 639.793 1138.98 596.394 1368.85C596.394 1368.85 596.394 1368.84 596.392 1368.84C583.898 1345.37 576.818 1318.57 576.818 1290.12C576.818 1197.43 651.957 1122.29 744.647 1122.29C788.144 1122.29 827.778 1138.83 857.592 1165.98Z" fill="#869AC2"/>
<path d="M602.799 1555.62H510.359V1561.11H602.799V1555.62Z" fill="url(#paint2_linear_1424_2006)"/>
<path d="M522.747 1824.94H530.847V1575.39H522.747V1824.94Z" fill="#706865"/>
<path d="M652.586 1554.06H588.331V1561.9H652.586V1554.06Z" fill="#CCBDB7"/>
<path d="M632.624 1487.2H608.292V1561.11H632.624V1487.2Z" fill="#FFAB55"/>
<path d="M833.208 1561.2H477.199V1575.39H833.208V1561.2Z" fill="#B59074"/>
<path d="M408.872 1475.31C408.872 1475.31 404.978 1529.92 415.647 1536.45C422.331 1540.55 448.98 1554.35 448.189 1556.94C447.399 1559.53 433.143 1579.98 433.143 1579.98C433.143 1579.98 381.955 1546.27 380.305 1535.65C378.693 1525.27 382.825 1455.7 389.859 1452.5C395.129 1450.1 397.911 1452.08 404.552 1457.01C413.873 1463.93 408.872 1475.31 408.872 1475.31Z" fill="#FFC955"/>
<path d="M502.163 1490.9L506.674 1489.24C506.674 1489.24 501.048 1476.03 498.592 1476.35C495.762 1476.72 492.232 1477.65 492.232 1477.65L502.163 1490.9Z" fill="#EAD8CF"/>
<path d="M503.193 1493.18C502.616 1492.75 493.602 1475.46 493.602 1475.46L474.345 1478.08L484.751 1498.56L503.193 1493.18Z" fill="#DA9B5B"/>
<path d="M471.851 1790.87C471.851 1790.87 470.26 1801.91 470.061 1803.57C469.862 1805.23 452.353 1802.6 452.353 1802.6L450.936 1789.44C450.936 1789.44 469.662 1789.31 471.851 1790.87Z" fill="#424773"/>
<path d="M470.247 1802.17C470.247 1802.17 475.794 1808.83 481.159 1811.73C486.524 1814.63 494.955 1815.78 498.128 1818.78C500.418 1820.95 506.469 1830.29 484.186 1830.1C461.904 1829.91 451.16 1831.42 448.772 1827.84C446.385 1824.26 452.227 1801.42 452.227 1801.42C452.227 1801.42 457.504 1803.32 470.247 1802.17Z" fill="#292C47"/>
<path d="M584.023 1790.97C584.023 1790.97 582.431 1802.02 582.233 1803.68C582.034 1805.34 564.526 1802.7 564.526 1802.7L563.108 1789.55C563.108 1789.55 581.834 1789.41 584.023 1790.97Z" fill="#424773"/>
<path d="M582.419 1802.27C582.419 1802.27 587.966 1808.93 593.332 1811.83C598.697 1814.73 618.441 1817.12 621.613 1820.12C623.903 1822.29 627.712 1831.02 596.359 1830.2C574.084 1829.62 563.332 1831.52 560.945 1827.94C558.557 1824.36 564.399 1801.53 564.399 1801.53C564.399 1801.53 569.371 1803.55 582.419 1802.27Z" fill="#292C47"/>
<path d="M415.38 1600.02C415.38 1600.02 479.032 1610.79 493.409 1613.05C507.785 1615.3 585.737 1634.7 595.486 1640.61C603.246 1645.31 591.416 1758.31 588.653 1801.42H557.95L555.724 1672.1C518.879 1673.02 492.588 1663.48 465.758 1667.56C438.928 1671.63 416.56 1677.43 399.511 1654.56C399.511 1654.56 398.878 1605.01 415.38 1600.02Z" fill="#292C47"/>
<path d="M478.12 1801.53L448.199 1799.68L445.282 1672.1C429.421 1672.5 423.984 1671.49 411.148 1669.94L386.99 1613.78C408.162 1618.01 475.997 1635.12 485.042 1640.61C492.802 1645.32 480.883 1758.41 478.12 1801.53Z" fill="#292C47"/>
<path d="M444.682 1361.42C444.682 1361.42 468.016 1354.97 476.918 1373.09C485.82 1391.2 481.784 1425.54 470.024 1428.77C458.264 1432 441.353 1428.28 436.471 1417.01C431.589 1405.74 427.695 1389.71 428.863 1379.34C430.032 1368.97 438.485 1363.9 444.682 1361.42Z" fill="#EEA886"/>
<path d="M463.927 1425.16C463.927 1425.16 463.671 1438.93 465.19 1441.87C466.708 1444.81 432.698 1444.07 432.698 1444.07C432.698 1444.07 438.058 1427.53 435.017 1413.43C432.007 1399.48 463.927 1425.16 463.927 1425.16Z" fill="#EEA886"/>
<path d="M433.185 1408.22C433.185 1408.22 435.003 1411.91 443.807 1411.32C452.611 1410.72 464.221 1400.1 467.959 1399.15C471.696 1398.2 471.919 1396.08 471.919 1396.08L473.896 1399.59L477.726 1400.17C477.726 1400.17 475.123 1389.53 480.793 1385.78C486.463 1382.03 478.24 1351.85 449.534 1359.13C449.534 1359.13 427.626 1363.14 427.332 1375.37C427.037 1387.61 428.932 1401.74 433.185 1408.22Z" fill="#3A3F47"/>
<path d="M466.978 1441.52C466.978 1441.52 466.883 1435.91 464.339 1435.37C461.796 1434.83 437.604 1431.5 434.482 1432.73L433.143 1440.14C433.143 1440.14 439.158 1443.84 466.978 1441.52Z" fill="#E2D2CA"/>
<path d="M473.978 1393.57C473.325 1388.97 468.096 1383.68 465.102 1390.85C462.107 1398.01 467.124 1408.44 470.483 1407.88C473.842 1407.33 474.863 1399.81 473.978 1393.57Z" fill="#EEA886"/>
<path d="M568.302 1507.81C568.29 1507.81 568.277 1507.81 568.26 1507.81C568.435 1507.89 568.46 1507.89 568.302 1507.81Z" fill="#323657"/>
<path d="M437.875 1364.71C437.875 1364.71 409.425 1363.37 432.91 1407.78L437.875 1364.71Z" fill="#3A3F47"/>
<path d="M374.486 1816.66L376.603 1822.61L466.026 1794.9L461.74 1782.85L374.486 1816.66Z" fill="#918783"/>
<path d="M469.093 1693.44H458.929V1790.66H469.093V1693.44Z" fill="#918783"/>
<path d="M493.986 1688.28H434.038V1694H493.986V1688.28Z" fill="#5E5854"/>
<path d="M554.322 1816.66L552.206 1822.61L462.783 1794.9L466.712 1782.09L554.322 1816.66Z" fill="#918783"/>
<path d="M491.318 1821.98V1828.9L462.783 1794.9L466.712 1782.09L491.318 1821.98Z" fill="#918783"/>
<path d="M562.68 1824.94C562.68 1829.55 558.938 1833.3 554.323 1833.3C549.708 1833.3 545.966 1829.55 545.966 1824.94C545.966 1820.32 549.708 1816.58 554.323 1816.58C558.938 1816.58 562.68 1820.32 562.68 1824.94Z" fill="#BFB2AC"/>
<path d="M492.028 1824.94C492.028 1829.55 488.286 1833.3 483.671 1833.3C479.055 1833.3 475.314 1829.55 475.314 1824.94C475.314 1820.32 479.056 1816.58 483.671 1816.58C488.286 1816.58 492.028 1820.32 492.028 1824.94Z" fill="#BFB2AC"/>
<path d="M382.843 1824.94C382.843 1829.55 379.101 1833.3 374.486 1833.3C369.87 1833.3 366.129 1829.55 366.129 1824.94C366.129 1820.32 369.871 1816.58 374.486 1816.58C379.102 1816.58 382.843 1820.32 382.843 1824.94Z" fill="#BFB2AC"/>
<path d="M524.702 1688.28H404.106C398.19 1688.28 393.394 1683.48 393.394 1677.56V1677.29C393.394 1671.37 398.19 1666.58 404.106 1666.58H524.701C530.618 1666.58 535.413 1671.37 535.413 1677.29V1677.56C535.414 1683.48 530.618 1688.28 524.702 1688.28Z" fill="#E2D2CA"/>
<path d="M787.659 1575.39H779.559V1824.94H787.659V1575.39Z" fill="#706865"/>
<path d="M714.824 1522.8H526.093C520.191 1522.8 515.406 1518.02 515.406 1512.11V1385.27C515.406 1379.37 520.19 1374.58 526.093 1374.58H714.824C720.726 1374.58 725.51 1379.37 725.51 1385.27V1512.11C725.511 1518.02 720.726 1522.8 714.824 1522.8Z" fill="url(#paint3_linear_1424_2006)"/>
<path d="M717.282 1382.6H523.635V1499.57H717.282V1382.6Z" fill="#F5F7FF"/>
<path d="M717.282 1382.6H523.635V1391.9H717.282V1382.6Z" fill="#CECFD6"/>
<path d="M568.129 1407.57H532.683C530.71 1407.57 529.111 1405.97 529.111 1403.99V1402.48C529.111 1400.51 530.711 1398.91 532.683 1398.91H568.129C570.102 1398.91 571.701 1400.51 571.701 1402.48V1403.99C571.702 1405.97 570.102 1407.57 568.129 1407.57Z" fill="#CECFD6"/>
<path d="M564.324 1494.76H536.489C532.414 1494.76 529.111 1491.46 529.111 1487.38V1420.75C529.111 1416.67 532.414 1413.37 536.489 1413.37H564.324C568.398 1413.37 571.702 1416.67 571.702 1420.75V1487.38C571.702 1491.46 568.398 1494.76 564.324 1494.76Z" fill="#CECFD6"/>
<path d="M663.954 1561.39V1558.75C663.954 1558.75 660.246 1542.34 634.017 1542.34C607.789 1542.34 608.319 1561.39 608.319 1561.39H663.954Z" fill="#2E436E"/>
<path d="M608.002 1544.78C608.002 1544.78 613.7 1544.34 615.788 1543.08C617.876 1541.82 630.365 1533.42 633.299 1534.76C636.233 1536.11 655.756 1542.09 655.078 1544.94C654.4 1547.8 652.594 1547.53 651.217 1547.02C649.84 1546.51 635.663 1543.54 634.412 1544.04C634.412 1544.04 648.337 1549.12 648.393 1552.83C648.449 1556.53 645.479 1557.44 644.159 1558.84C642.838 1560.24 641.253 1563.72 637.664 1563.99C634.075 1564.25 616.565 1558.16 612.96 1557.88C609.355 1557.61 602.684 1558.11 602.23 1557.52C601.776 1556.93 608.002 1544.78 608.002 1544.78Z" fill="#EEA886"/>
<path d="M504.268 1449.29C486.1 1446.1 466.978 1441.52 466.978 1441.52L433.143 1440.14C433.143 1440.14 402.09 1446.97 389.86 1452.5C388.7 1453.02 388.695 1480.2 385.511 1487.33L395.651 1508.72C395.651 1508.72 401.508 1551.09 402.723 1569.94C403.281 1578.59 401.145 1653.54 401.145 1653.54C401.145 1653.54 404.185 1655.04 427.277 1657.59C450.369 1660.13 508.067 1656.67 508.43 1653.94C508.795 1651.21 497.256 1552.38 496.745 1547.26C495.961 1539.41 499.014 1503.11 499.014 1503.11C503.364 1508.96 514.456 1535.35 526.017 1547.91C532.819 1555.29 566.493 1559.82 572.84 1560.03C586.656 1560.5 611.863 1563.25 612.6 1561.9C613.188 1561.1 614.796 1539.53 613.216 1539C611.833 1538.54 565.028 1535.85 553.037 1529.48C548.65 1527.16 535.535 1498.56 535.535 1498.56C535.535 1498.56 514.29 1453.8 504.268 1449.29Z" fill="#FFC955"/>
<path d="M437.588 1651.38H380.786C369.426 1651.38 360.217 1642.17 360.217 1630.81V1536.3C360.217 1524.94 369.426 1515.73 380.786 1515.73H437.588C448.948 1515.73 458.157 1524.94 458.157 1536.3V1630.81C458.157 1642.17 448.948 1651.38 437.588 1651.38Z" fill="#E2D2CA"/>
<path d="M440.802 1682.87C426.365 1682.87 414.654 1678.03 405.99 1668.46C386.411 1646.85 389.929 1608.85 390.089 1607.24C390.386 1604.25 393.059 1602.06 396.049 1602.36C399.043 1602.65 401.229 1605.32 400.934 1608.31C400.892 1608.75 397.772 1643.19 414.088 1661.17C420.687 1668.44 429.426 1671.98 440.801 1671.98C443.811 1671.98 446.25 1674.42 446.25 1677.43C446.251 1680.44 443.811 1682.87 440.802 1682.87Z" fill="#E2D2CA"/>
<path d="M580.297 1441.09C580.297 1450.93 583.835 1459.94 589.709 1466.92C591.083 1468.56 592.584 1470.08 594.197 1471.47C594.657 1471.87 595.128 1472.26 595.607 1472.63C596.148 1473.06 596.7 1473.47 597.261 1473.87C602.547 1477.62 608.779 1480.12 615.526 1480.95C616.714 1481.09 617.92 1481.19 619.139 1481.22C619.576 1481.24 620.015 1481.25 620.457 1481.25C621.757 1481.25 623.042 1481.18 624.309 1481.06C625.725 1480.93 627.12 1480.72 628.488 1480.44C634.572 1479.21 640.157 1476.6 644.904 1472.95C646.337 1471.85 647.69 1470.66 648.959 1469.38C649.206 1469.13 649.45 1468.88 649.688 1468.62C650.588 1467.67 651.438 1466.68 652.238 1465.64C657.493 1458.85 660.619 1450.33 660.619 1441.09C660.619 1418.9 642.638 1400.92 620.457 1400.92C598.278 1400.92 580.297 1418.9 580.297 1441.09Z" fill="#EEF0F7"/>
<path d="M594.298 1463.25L597.26 1473.87C602.546 1477.62 608.778 1480.12 615.525 1480.95C616.713 1481.09 617.919 1481.19 619.138 1481.22C619.575 1481.24 620.014 1481.25 620.456 1481.25C621.756 1481.25 623.041 1481.18 624.308 1481.06C625.724 1480.93 627.119 1480.72 628.487 1480.44C634.571 1479.21 640.156 1476.6 644.903 1472.95C645.471 1469.44 646.08 1465.55 646.617 1461.91C643.665 1460.81 634.27 1457.62 628.342 1455.61C628.259 1455.58 628.176 1455.55 628.095 1455.53C627.964 1455.48 627.836 1455.44 627.709 1455.4C627.359 1455.28 627.023 1455.17 626.704 1455.06C626.378 1454.95 626.07 1454.84 625.782 1454.74C624.567 1454.34 623.711 1454.05 623.404 1453.95C623.402 1453.94 623.402 1453.94 623.4 1453.94C623.321 1453.92 623.279 1453.9 623.279 1453.9L623.211 1453.91L615.238 1454.5L613.901 1454.6L613.485 1454.64C613.485 1454.64 613.422 1454.65 613.302 1454.68C612.821 1454.8 611.424 1455.17 609.574 1455.73C609.572 1455.73 609.568 1455.74 609.566 1455.74C604.846 1457.18 597.185 1459.93 594.298 1463.25Z" fill="#D9C7C1"/>
<path d="M618.367 1421.14C618.367 1421.14 608.806 1422.76 610.427 1437.73C612.049 1452.7 620.489 1451.38 621.054 1451.35C621.619 1451.33 629.543 1451.54 629.961 1433.23C629.961 1433.23 630.083 1419.7 618.367 1421.14Z" fill="#EEA987"/>
<path d="M614.178 1447.02C614.178 1447.02 614.508 1453.18 613.926 1454.52C613.344 1455.86 621.604 1460.1 626.736 1455.27C626.736 1455.27 625.698 1448.53 626.021 1446.16C626.343 1443.78 614.178 1447.02 614.178 1447.02Z" fill="#EEA987"/>
<path d="M610.233 1433.49C610.233 1433.49 609.172 1432.39 608.8 1433.52C608.427 1434.66 610.495 1439.71 610.366 1439.94C610.366 1439.94 610.562 1440.37 610.811 1440.13C611.06 1439.89 610.233 1433.49 610.233 1433.49Z" fill="#EEA987"/>
<path d="M629.852 1433.09C629.852 1433.09 630.867 1431.94 631.286 1433.06C631.704 1434.18 630.176 1439.22 629.985 1439.53C629.985 1439.53 629.655 1440.05 629.396 1439.82C629.137 1439.58 629.852 1433.09 629.852 1433.09Z" fill="#EEA987"/>
<path d="M609.622 1432.22C609.952 1434.27 610.263 1435.79 610.263 1435.79L611.655 1437.61C611.655 1437.61 611.573 1433.59 611.785 1432.96C611.865 1432.72 611.96 1432.3 612.057 1431.84C612.217 1431.08 612.38 1430.23 612.493 1429.94C612.672 1429.49 620.688 1427.15 627.827 1430.43C627.827 1430.43 627.767 1431.05 627.77 1431.74C627.772 1432.54 627.861 1433.44 628.229 1433.58C628.914 1433.83 628.627 1438.28 628.627 1438.28L629.74 1437C629.74 1437 630.062 1434.67 630.379 1432C630.379 1432 630.381 1431.99 630.382 1431.98C630.454 1431.35 630.527 1430.71 630.596 1430.08C630.756 1427.39 630.489 1422.51 626.989 1419.64C624.627 1418.63 620.853 1417.77 614.565 1419.69C614.565 1419.69 613.123 1419.79 612.719 1420.18C608.803 1424.49 609.622 1432.22 609.622 1432.22Z" fill="#E8734D"/>
<path d="M625.364 1449.35C625.364 1449.35 623.838 1451.47 620.292 1451.39C616.747 1451.31 615.208 1449.46 615.208 1449.46C615.208 1449.46 616.887 1452.97 620.31 1452.94C623.732 1452.9 625.364 1449.35 625.364 1449.35Z" fill="#C78D71"/>
<path d="M627.71 1455.4C627.71 1455.4 625.147 1459.86 620.286 1460.28C617.202 1460.54 614.532 1456.63 613.28 1454.72C613.28 1454.72 620.187 1451.76 627.71 1455.4Z" fill="#EEA987"/>
<path d="M614.167 1453.31C614.167 1453.31 616.122 1455.87 620.286 1458.61L617.696 1462.6L613.28 1454.72L614.167 1453.31Z" fill="#EDDAD3"/>
<path d="M626.541 1453.9C626.541 1453.9 624.054 1457.02 620.286 1458.61L623.128 1462.72L628.096 1455.53L626.541 1453.9Z" fill="#EDDAD3"/>
<path d="M620.286 1458.61L618.067 1461.98C618.067 1461.98 620.397 1463.3 622.564 1461.9L620.286 1458.61Z" fill="#5073AB"/>
<path d="M591.734 1462.62C591.734 1462.62 591.755 1462.69 591.796 1462.84C592.041 1463.71 592.977 1467.04 594.196 1471.47C594.656 1471.87 595.127 1472.26 595.606 1472.63C596.147 1473.06 596.699 1473.47 597.26 1473.87C602.546 1477.62 608.778 1480.12 615.525 1480.95C614.93 1467.04 613.28 1454.72 613.28 1454.72C611.978 1455.06 610.742 1455.4 609.575 1455.73C609.573 1455.73 609.569 1455.74 609.567 1455.74C599.376 1458.66 594.208 1461.23 592.446 1462.2C592.431 1462.21 592.419 1462.22 592.406 1462.22C591.948 1462.48 591.734 1462.62 591.734 1462.62Z" fill="#323657"/>
<path d="M628.488 1480.44C634.572 1479.21 640.157 1476.6 644.904 1472.95C646.337 1471.85 647.69 1470.66 648.959 1469.38C649.206 1469.13 649.45 1468.88 649.688 1468.62C650.391 1465.64 650.859 1463.69 650.888 1463.56L650.89 1463.56C650.89 1463.56 645.921 1460.29 628.342 1455.6V1455.61C628.343 1456.01 628.333 1467.29 628.488 1480.44Z" fill="#323657"/>
<path d="M619.015 1462.35C619.179 1466.02 619.196 1473.12 619.14 1481.22C619.577 1481.24 620.016 1481.25 620.458 1481.25C621.758 1481.25 623.043 1481.18 624.31 1481.06C623.537 1471.07 622.235 1464.82 621.642 1462.34C621.447 1461.53 621.329 1461.13 621.329 1461.13L618.972 1461.52C618.988 1461.77 619.002 1462.05 619.015 1462.35Z" fill="#5073AB"/>
<path d="M589.709 1466.92C591.083 1468.56 592.584 1470.08 594.197 1471.47C594.657 1471.87 595.128 1472.26 595.607 1472.63L592.448 1462.2L592.446 1462.2C592.433 1462.21 592.421 1462.21 592.408 1462.22C592.215 1462.35 592.012 1462.56 591.797 1462.84C591.176 1463.65 590.468 1465.07 589.709 1466.92Z" fill="#323657"/>
<path d="M648.959 1469.38C649.206 1469.13 649.45 1468.88 649.688 1468.62C650.588 1467.67 651.438 1466.68 652.238 1465.64C651.784 1464.56 651.332 1463.83 650.891 1463.56L650.889 1463.56L648.959 1469.38Z" fill="#323657"/>
<path d="M1745.48 979.681L1745.34 977.742C1744.89 973.714 1746.23 969.313 1749.96 964.839C1753.32 960.886 1755.18 957.977 1755.18 954.62C1755.18 950.816 1752.79 948.28 1748.1 948.206C1745.41 948.206 1742.43 949.102 1740.56 950.519L1738.77 945.82C1741.23 944.03 1745.49 942.837 1749.44 942.837C1758.02 942.837 1761.89 948.133 1761.89 953.801C1761.89 958.873 1759.06 962.528 1755.48 966.78C1752.2 970.658 1751.01 973.94 1751.23 977.744L1751.3 979.683H1745.48V979.681ZM1743.84 990.123C1743.84 987.363 1745.71 985.424 1748.32 985.424C1750.93 985.424 1752.72 987.363 1752.72 990.123C1752.72 992.733 1751 994.747 1748.24 994.747C1745.63 994.747 1743.84 992.733 1743.84 990.123Z" fill="white"/>
</g>
<defs>
<linearGradient id="paint0_linear_1424_2006" x1="351.297" y1="913.295" x2="1796.87" y2="913.295" gradientUnits="userSpaceOnUse">
<stop stop-color="#9A5CFF"/>
<stop offset="0.9948" stop-color="#4059BF"/>
</linearGradient>
<linearGradient id="paint1_linear_1424_2006" x1="233.765" y1="1680.14" x2="1851.17" y2="1680.14" gradientUnits="userSpaceOnUse">
<stop stop-color="#9A5CFF"/>
<stop offset="0.9948" stop-color="#4059BF"/>
</linearGradient>
<linearGradient id="paint2_linear_1424_2006" x1="510.359" y1="1558.36" x2="602.799" y2="1558.36" gradientUnits="userSpaceOnUse">
<stop stop-color="#FF9F55"/>
<stop offset="1" stop-color="#FFD255"/>
</linearGradient>
<linearGradient id="paint3_linear_1424_2006" x1="515.406" y1="1448.69" x2="725.51" y2="1448.69" gradientUnits="userSpaceOnUse">
<stop stop-color="#FF9F55"/>
<stop offset="1" stop-color="#FFD255"/>
</linearGradient>
<clipPath id="clip0_1424_2006">
<rect width="2523.06" height="2000" fill="white"/>
</clipPath>
</defs>
</svg>
